<?xml version="1.0" standalone="no"?>
<!DOCTYPE svg PUBLIC "-//W3C//DTD SVG 20010904//EN"
 "http://www.w3.org/TR/2001/REC-SVG-20010904/DTD/svg10.dtd">
<svg version="1.0" xmlns="http://www.w3.org/2000/svg"
 width="7201.000000pt" height="7479.000000pt" viewBox="0 0 7201.000000 7479.000000"
 preserveAspectRatio="xMidYMid meet">
<metadata>
Created by potrace 1.15, written by Peter Selinger 2001-2017
</metadata>
<g transform="translate(0.000000,7479.000000) scale(0.100000,-0.100000)"
fill="#000000" stroke="none">
<path d="M27470 35729 c-91 -4 -205 -11 -255 -17 -49 -6 -160 -14 -245 -17
-92 -4 -228 -19 -335 -36 -227 -37 -367 -49 -542 -48 -125 1 -164 -4 -421 -50
-457 -83 -507 -94 -1262 -276 -261 -63 -576 -139 -699 -169 l-223 -54 -117 66
c-165 92 -198 106 -232 92 -19 -8 -37 -9 -65 -1 -35 10 -40 9 -54 -11 -43 -63
-59 -75 -111 -81 -70 -9 -155 -75 -248 -193 -143 -180 -130 -169 -251 -208
-59 -20 -171 -52 -247 -72 -191 -49 -429 -123 -683 -211 -235 -81 -317 -104
-460 -128 -131 -22 -250 -59 -345 -108 -62 -32 -103 -64 -181 -142 -148 -146
-185 -202 -219 -324 -15 -56 -37 -113 -48 -127 -18 -24 -19 -28 -5 -57 43 -87
137 -175 240 -226 53 -25 107 -79 145 -146 24 -41 42 -56 105 -90 98 -52 103
-56 164 -151 51 -79 104 -135 127 -133 7 0 2 5 -10 11 -20 10 -33 38 -18 38 3
0 43 -36 90 -79 46 -44 92 -82 103 -85 10 -4 24 -17 30 -30 9 -21 -25 -84
-330 -602 -186 -319 -385 -660 -440 -759 -56 -99 -181 -319 -278 -490 -220
-387 -298 -536 -443 -845 -142 -302 -180 -382 -399 -840 -96 -201 -205 -437
-242 -525 -38 -88 -97 -221 -132 -296 -59 -126 -87 -204 -179 -500 -20 -63
-55 -159 -79 -212 -24 -53 -50 -121 -56 -149 -23 -95 -87 -269 -178 -483 -49
-115 -115 -277 -146 -360 -32 -82 -78 -190 -103 -240 -65 -129 -106 -239 -151
-410 -166 -625 -184 -819 -101 -1086 40 -131 54 -142 172 -151 51 -3 133 -7
184 -7 50 -1 124 -8 163 -16 80 -17 93 -13 134 36 17 20 26 42 26 66 0 47 33
93 67 93 15 0 34 7 44 16 16 14 21 14 56 -5 38 -19 102 -33 211 -46 50 -6 55
-4 83 26 16 17 32 43 35 58 10 47 17 58 21 36 12 -58 25 -75 57 -74 66 2 78
11 93 69 7 30 26 75 40 100 15 25 41 83 58 129 63 175 77 80 17 -120 l-19 -65
23 -64 c25 -66 61 -130 73 -130 4 0 15 26 25 58 38 115 69 202 157 431 94 243
148 344 191 354 16 4 27 19 36 49 28 88 67 153 137 227 66 69 75 84 103 166
16 50 36 114 42 144 9 40 42 98 125 225 109 166 112 173 118 240 5 53 15 85
47 145 23 42 55 90 71 107 22 23 44 75 92 225 60 182 117 321 154 379 9 14 29
59 43 101 15 42 36 92 47 110 43 72 204 462 259 633 54 162 63 183 107 233 26
30 47 62 47 72 0 10 13 37 29 62 15 24 47 76 70 116 22 39 52 80 66 91 13 10
43 59 65 109 40 88 42 89 86 101 25 7 62 25 81 39 28 21 51 29 107 34 41 4 85
15 103 25 136 82 141 84 186 84 25 0 58 -5 73 -10 20 -8 31 -7 43 4 33 29 100
55 177 70 43 8 91 19 106 25 20 8 29 7 38 -5 19 -21 55 -17 118 15 87 44 139
58 247 71 80 8 116 18 185 50 73 34 104 41 220 55 95 12 135 14 138 6 5 -16
86 -13 124 4 47 21 710 208 848 239 172 38 465 88 545 92 153 7 315 69 407
153 51 47 52 48 39 79 -8 19 -21 32 -32 32 -26 0 -31 15 -11 33 10 9 40 17 74
19 l56 3 -20 53 c-11 29 -30 60 -44 69 -27 17 -96 23 -131 10 -15 -5 -23 -4
-23 2 0 6 8 11 18 11 11 0 27 9 36 19 17 19 16 20 -23 41 -23 11 -41 24 -41
28 0 23 33 50 68 55 70 9 97 27 100 69 4 52 -30 114 -72 132 -19 8 -40 27 -48
43 -15 31 -40 35 -126 20 -36 -6 -43 -5 -48 10 -10 33 -47 98 -67 120 -33 37
-79 52 -198 64 l-114 11 -405 -72 c-223 -39 -490 -82 -595 -96 -224 -30 -439
-66 -562 -95 -48 -11 -149 -31 -223 -45 -74 -13 -176 -36 -225 -49 -104 -28
-326 -77 -331 -73 -1 2 17 32 41 68 46 68 56 92 29 69 -22 -18 34 92 74 147
16 22 63 76 104 120 62 66 85 102 146 224 40 80 87 188 106 240 26 75 39 98
60 108 14 7 34 25 43 40 9 15 24 36 34 47 9 11 20 38 24 60 8 46 38 108 72
149 30 36 60 94 84 163 10 30 44 93 75 141 56 85 104 180 104 205 0 7 21 33
46 57 51 50 81 103 114 203 22 67 98 194 139 231 12 11 21 25 21 33 0 7 15 23
33 33 33 20 97 90 97 107 0 9 372 179 585 268 58 25 179 68 268 96 270 85 412
134 642 219 299 111 334 120 775 200 555 101 740 143 1063 239 93 28 215 60
273 73 l104 21 0 35 c0 48 50 96 124 117 l57 17 -43 38 -43 38 39 34 c22 18
87 78 145 134 121 115 180 157 214 149 12 -2 42 5 67 18 43 21 45 25 51 73 4
27 13 63 22 79 14 28 14 31 -14 63 -39 44 -44 72 -29 153 10 54 11 78 2 107
-11 34 -10 39 11 55 12 9 47 29 77 43 30 15 57 28 59 30 2 2 -6 19 -17 39
l-21 35 29 0 c16 0 41 5 55 10 23 9 26 14 21 38 -13 52 -67 151 -97 176 -29
25 -36 26 -158 26 -70 0 -163 4 -207 10 -112 13 -234 16 -424 9z"/>
<path d="M44545 32732 c-16 -10 -37 -31 -45 -46 -14 -27 -66 -56 -99 -56 -47
0 -223 -246 -264 -369 -13 -37 -32 -80 -44 -97 -65 -92 -202 -406 -312 -714
-29 -80 -60 -152 -70 -160 -10 -8 -30 -60 -46 -115 -16 -55 -57 -172 -93 -260
-35 -88 -104 -261 -152 -385 -48 -124 -111 -279 -140 -345 -28 -66 -108 -285
-176 -487 -124 -367 -183 -515 -289 -723 -66 -131 -69 -135 -100 -135 -13 0
-25 -6 -28 -12 -3 -9 -13 -5 -32 12 -22 20 -29 22 -33 10 -3 -8 -18 -27 -33
-43 -25 -25 -34 -27 -96 -26 -54 1 -80 -4 -127 -25 -72 -32 -74 -32 -86 -1
-11 29 -40 24 -40 -6 0 -11 -18 -35 -40 -55 -22 -20 -38 -40 -35 -44 6 -10
-81 -23 -95 -15 -6 3 -30 -7 -53 -23 l-43 -29 -12 49 c-18 78 -69 156 -161
248 -114 113 -258 233 -296 245 -16 6 -34 20 -39 31 -13 29 -64 46 -133 43
-37 -1 -92 8 -153 25 -146 40 -284 56 -495 56 -183 1 -277 5 -713 30 -179 11
-218 10 -340 -5 -119 -15 -238 -18 -897 -18 -801 -1 -845 1 -899 44 -14 11
-26 31 -26 43 0 46 86 131 237 232 45 30 85 63 88 72 7 19 336 269 435 330 36
22 81 54 101 71 20 17 51 36 69 42 18 7 150 75 294 151 606 325 922 468 1096
497 36 7 95 21 132 32 55 18 86 21 172 17 58 -2 107 -6 111 -9 3 -4 -14 -40
-38 -80 -24 -41 -82 -144 -129 -229 -47 -85 -104 -186 -127 -224 -23 -37 -40
-75 -37 -82 9 -22 -3 -42 -39 -63 -28 -16 -34 -27 -40 -68 -8 -61 10 -173 35
-224 22 -42 29 -45 134 -53 88 -7 136 -36 136 -82 0 -38 10 -47 75 -64 28 -7
68 -23 90 -36 71 -41 192 -84 235 -84 22 0 57 9 78 19 66 34 149 117 178 179
15 31 46 82 69 112 23 30 47 70 55 88 7 19 31 62 54 95 22 34 74 130 116 213
43 83 98 180 123 216 26 36 67 103 91 149 54 102 207 446 210 474 2 11 17 41
35 67 42 63 77 149 102 256 39 162 15 365 -55 472 -12 19 -28 57 -35 84 -20
82 -57 163 -135 295 -41 69 -87 152 -102 183 -22 45 -33 58 -53 60 -20 2 -27
9 -29 31 -3 27 -10 31 -44 28 -10 -1 -18 4 -18 11 0 13 -58 45 -74 40 -4 -2
-30 4 -56 13 -35 12 -54 13 -71 6 -13 -6 -100 -29 -193 -51 -314 -76 -559
-157 -966 -320 -85 -34 -216 -85 -290 -112 -191 -71 -330 -135 -440 -203 -52
-32 -142 -87 -200 -123 -58 -35 -179 -101 -270 -146 -91 -45 -203 -108 -249
-140 -46 -31 -111 -71 -145 -88 -34 -16 -83 -47 -111 -67 -27 -20 -72 -50
-100 -66 -68 -39 -175 -117 -175 -127 0 -4 -36 -26 -79 -48 -150 -75 -250
-149 -491 -365 -143 -128 -229 -201 -342 -287 -211 -160 -329 -284 -452 -473
-50 -77 -133 -203 -184 -280 l-94 -140 6 50 c22 202 28 306 23 410 -11 242
-47 441 -118 661 -69 214 -83 244 -111 244 -43 0 -68 35 -68 94 0 29 -4 36
-19 36 -27 0 -64 48 -89 116 -12 32 -40 79 -61 104 l-40 45 -1 -32 c0 -17 5
-35 10 -38 6 -3 10 -10 10 -16 0 -17 -20 -9 -56 24 -35 31 -36 34 -19 50 20
21 16 90 -16 249 -33 164 -65 239 -166 383 -50 72 -104 157 -121 190 -52 104
-78 117 -310 150 -173 24 -279 48 -401 89 -91 31 -119 49 -127 84 -4 15 -13
39 -20 53 -13 25 -15 26 -91 21 -43 -3 -87 -10 -98 -17 -11 -7 -58 -15 -105
-18 -106 -7 -183 -35 -252 -91 -29 -23 -71 -53 -93 -66 -37 -22 -184 -149
-264 -228 -19 -18 -51 -42 -72 -52 -20 -11 -70 -46 -110 -78 -109 -86 -640
-609 -754 -742 -55 -63 -230 -263 -390 -445 -160 -181 -320 -366 -356 -410
-190 -232 -461 -625 -635 -920 -118 -202 -342 -649 -436 -870 -138 -326 -300
-791 -342 -978 -59 -262 -76 -604 -42 -812 94 -567 441 -1057 921 -1298 120
-60 238 -98 430 -138 146 -31 174 -34 330 -33 351 1 675 59 890 159 39 18 97
38 130 44 85 16 144 40 354 146 213 108 293 163 319 218 11 23 26 40 42 44 52
13 117 51 160 92 25 24 71 56 102 71 44 21 68 42 109 96 28 38 61 76 73 84 20
14 19 15 -24 20 l-45 5 65 46 c108 76 161 104 170 89 14 -23 67 20 153 125 45
55 103 131 128 170 26 38 64 87 86 107 220 210 263 259 362 403 57 82 114 172
126 200 13 27 50 92 84 144 34 52 61 99 61 105 0 14 58 76 71 76 14 0 11 42
-6 60 -13 15 -12 21 14 61 15 24 44 82 62 128 19 46 44 94 56 107 12 13 47 83
78 156 31 73 74 160 95 193 22 34 43 76 46 95 4 19 12 46 19 60 7 14 15 40 18
57 4 18 24 55 45 82 43 54 48 71 108 336 20 88 40 167 45 175 5 9 9 -19 9 -72
0 -82 4 -97 59 -245 99 -263 203 -469 269 -530 15 -14 56 -38 92 -54 36 -17
76 -41 90 -54 32 -31 75 -48 193 -80 108 -28 144 -32 207 -18 25 5 57 6 73 2
15 -4 69 -3 120 2 50 4 134 9 185 9 80 0 97 -3 123 -22 29 -22 30 -22 64 -4
28 15 47 18 98 13 40 -4 81 -1 108 7 29 8 101 12 209 11 244 -3 235 -2 219
-21 -12 -14 -11 -16 6 -12 11 2 19 10 17 17 -1 7 3 11 10 8 7 -2 27 1 43 8 48
19 162 44 265 57 100 13 119 13 696 20 198 3 366 8 372 12 6 3 14 1 18 -5 5
-9 53 -10 178 -5 96 4 243 2 336 -4 167 -11 200 -15 200 -29 0 -15 -114 -134
-153 -158 -21 -13 -91 -42 -154 -64 -64 -22 -132 -48 -152 -58 -20 -10 -169
-68 -331 -129 -857 -320 -1029 -390 -1825 -752 -602 -274 -980 -440 -1000
-440 -38 0 -534 -236 -650 -310 -55 -35 -116 -72 -135 -83 -19 -11 -48 -41
-65 -66 -23 -35 -40 -49 -75 -61 -63 -21 -94 -85 -106 -219 -9 -107 -10 -358
-1 -367 3 -3 19 2 36 11 29 15 51 13 51 -3 0 -4 -23 -18 -51 -30 -42 -20 -48
-26 -38 -38 8 -10 22 -13 42 -8 21 4 27 3 23 -5 -4 -6 -12 -9 -17 -6 -15 10
-10 -12 6 -25 22 -18 79 9 97 46 17 35 46 54 56 37 5 -8 13 -9 22 -3 8 6 27
10 42 10 41 0 125 41 229 110 117 79 194 120 226 120 14 0 41 14 60 30 21 19
45 30 63 30 16 0 45 11 64 24 20 13 52 27 73 31 21 4 68 20 105 36 36 16 71
29 78 29 6 0 23 11 37 24 14 13 44 27 67 30 23 4 71 26 110 51 38 25 85 47
105 51 20 3 65 17 101 31 36 14 108 35 160 47 53 11 97 25 98 31 5 15 -31 24
-52 13 -16 -9 -18 -7 -13 7 4 9 7 19 7 21 0 2 12 4 26 4 14 0 62 18 106 40 45
22 95 40 113 40 17 0 36 5 43 12 8 8 15 8 25 0 15 -12 59 -2 107 24 75 41 114
55 136 50 17 -5 26 -2 31 9 3 10 16 16 32 15 14 -1 35 -2 46 -1 16 1 17 3 5
11 -12 7 -11 12 5 31 11 12 34 28 50 35 17 7 39 22 49 33 16 18 31 21 102 21
79 0 113 12 85 30 -19 11 9 27 49 28 57 1 119 23 125 43 9 28 35 38 139 54 52
7 114 19 138 26 23 6 63 11 88 10 28 -1 71 8 113 24 37 13 93 28 124 32 38 4
62 12 71 24 6 9 27 20 45 24 17 4 55 20 83 36 52 30 88 36 113 20 20 -13 -82
-62 -199 -95 -106 -30 -132 -46 -79 -47 l34 0 -30 -14 c-16 -8 -56 -21 -87
-30 -56 -15 -70 -27 -48 -40 15 -9 12 -25 -5 -25 -8 0 -36 7 -62 16 -38 13
-48 14 -52 3 -2 -7 -15 -23 -29 -36 -14 -13 -22 -26 -19 -29 3 -4 35 1 71 10
36 9 72 16 80 16 9 0 45 20 82 45 53 36 74 45 109 45 24 0 47 -4 50 -10 3 -6
-4 -10 -18 -10 -13 0 -68 -22 -123 -50 -54 -27 -107 -50 -116 -50 -9 0 -34
-12 -55 -26 -28 -19 -48 -24 -77 -22 -36 3 -40 1 -47 -26 -10 -37 -24 -46 -76
-46 -24 0 -43 -4 -43 -9 0 -18 -32 -41 -57 -41 -16 0 -27 -7 -30 -19 -3 -13
-17 -20 -44 -24 -21 -3 -53 -17 -70 -31 -17 -14 -38 -26 -47 -26 -9 0 -27 -11
-41 -24 -15 -13 -66 -35 -116 -51 -49 -15 -164 -58 -255 -95 -91 -37 -183 -73
-205 -80 -22 -7 -83 -34 -135 -60 -52 -27 -157 -73 -233 -104 -75 -30 -150
-62 -165 -71 l-27 -15 30 6 c17 4 100 33 185 64 159 59 261 87 281 75 6 -4 19
2 30 14 21 22 39 27 39 11 0 -5 -13 -16 -28 -24 -16 -8 -34 -22 -41 -30 -12
-14 -10 -16 9 -16 20 0 21 -2 9 -17 -13 -15 -12 -16 11 -8 14 4 60 10 103 12
43 3 75 9 72 14 -4 5 1 6 10 3 14 -6 14 -8 -1 -19 -23 -16 -1 -30 26 -15 12 6
20 7 20 1 0 -5 18 -2 40 7 28 12 40 23 40 38 0 14 18 31 62 57 53 31 68 36
101 30 39 -6 40 -6 33 21 -8 34 13 44 47 21 22 -14 25 -14 30 0 8 19 27 20 27
0 0 -18 8 -18 39 -1 24 13 24 14 3 25 -11 6 -27 11 -34 11 -7 0 -19 4 -27 9
-12 8 -12 12 -2 25 18 22 -3 22 -54 0 -34 -14 -297 -83 -318 -84 -5 0 -5 6 -1
13 4 6 -2 4 -12 -5 -20 -17 -125 -58 -148 -58 -19 1 36 39 106 75 36 19 97 42
135 51 37 10 92 30 122 46 30 15 69 28 87 28 19 0 53 13 83 31 27 17 107 49
178 70 134 40 153 44 153 31 0 -4 -46 -22 -102 -39 -99 -31 -404 -152 -383
-152 6 -1 62 15 125 34 125 38 132 40 110 25 -11 -7 -4 -10 26 -10 28 0 44 -5
48 -15 3 -8 0 -15 -7 -16 -7 0 1 -5 16 -9 19 -6 42 -4 70 6 22 8 47 12 54 10
7 -3 17 2 22 11 7 14 13 15 38 4 32 -13 51 -10 156 22 67 21 76 31 44 51 -13
8 -29 6 -64 -8 -27 -10 -63 -20 -82 -21 -20 -1 -37 -8 -40 -17 -5 -13 -12 -12
-50 5 -52 23 -41 36 29 37 50 0 135 34 125 49 -8 14 32 33 54 26 10 -3 24 1
31 10 7 8 27 15 45 15 18 0 44 9 58 20 33 26 38 25 27 -5 -12 -31 5 -33 53 -8
30 15 31 15 18 -1 -13 -15 -13 -19 -1 -26 16 -10 5 -16 -40 -22 -25 -4 -25 -4
3 -10 29 -6 62 15 52 33 -4 5 5 14 19 21 20 8 32 8 51 0 14 -7 39 -12 55 -12
22 0 28 4 23 16 -3 8 -12 13 -20 10 -8 -3 -11 -1 -8 4 3 6 14 10 24 10 9 0 30
14 46 30 16 17 36 30 45 30 8 0 32 9 53 20 20 11 37 16 37 10 0 -13 54 -4 124
20 33 11 74 20 92 20 18 0 49 9 68 21 41 24 287 109 316 109 11 0 20 6 20 14
0 9 34 26 94 46 52 17 132 51 177 75 147 79 270 136 333 156 59 18 106 42 211
106 28 17 116 69 196 116 172 101 229 156 290 282 22 46 48 87 57 91 9 4 74 8
144 9 125 3 129 4 177 34 56 37 167 69 183 53 16 -16 -112 -493 -239 -890
-162 -509 -184 -587 -238 -855 -19 -92 -44 -244 -56 -336 l-23 -168 31 -70
c18 -41 34 -96 38 -136 4 -37 11 -67 16 -67 5 0 18 -9 29 -20 14 -14 39 -22
78 -26 48 -5 66 -2 112 20 30 14 64 26 75 26 27 1 140 50 190 83 76 50 86 59
96 84 8 21 12 23 24 13 23 -19 63 13 87 68 12 26 26 50 33 54 17 10 53 96 61
146 8 49 15 56 74 72 25 7 58 19 73 27 22 11 32 12 43 2 13 -11 29 -10 66 6
14 5 17 0 20 -35 l3 -42 29 23 c31 25 65 91 66 127 0 13 9 35 19 48 11 14 23
50 27 80 3 30 19 89 35 130 15 42 25 83 22 91 -3 8 -2 18 4 22 14 9 67 89 92
138 11 23 21 60 21 81 0 31 5 41 26 52 31 17 37 32 129 290 40 113 115 306
168 430 93 221 147 370 166 461 6 25 25 68 43 95 18 27 62 110 97 185 l64 136
261 63 c143 35 367 91 496 126 204 55 274 69 526 104 294 41 569 86 585 96 12
7 12 5 -14 -62 -28 -71 -52 -170 -67 -277 -13 -88 -36 -161 -105 -327 -155
-375 -273 -778 -390 -1339 -25 -119 -64 -286 -87 -371 -28 -109 -40 -173 -39
-215 1 -37 -6 -85 -19 -124 -16 -52 -18 -71 -10 -102 15 -56 61 -104 112 -117
24 -6 75 -19 113 -28 39 -10 86 -25 105 -35 20 -9 62 -22 94 -28 66 -12 105
-1 145 43 17 17 35 26 56 26 17 0 57 5 88 11 51 11 55 14 54 37 -2 21 5 30 36
44 20 10 37 19 37 21 0 1 -7 27 -15 57 -11 42 -12 56 -2 62 7 5 13 1 15 -10 8
-49 15 -64 52 -110 l39 -50 -24 -16 c-20 -13 -25 -25 -25 -56 0 -21 4 -41 9
-44 12 -8 85 74 111 124 21 40 36 83 97 263 15 44 32 77 39 77 21 0 38 32 113
220 39 96 83 192 97 213 14 21 24 41 22 43 -3 2 -19 7 -36 10 -26 5 -36 1 -62
-24 -18 -18 -30 -41 -30 -56 0 -15 -8 -30 -19 -36 -11 -5 -25 -26 -32 -44 -14
-39 -29 -38 -29 1 0 15 13 38 35 60 29 29 35 41 30 62 -6 27 21 115 68 228 15
34 31 93 37 132 5 39 15 103 20 142 6 39 30 120 55 182 25 62 47 126 50 142 6
49 16 68 61 117 36 39 43 52 38 75 -3 15 1 44 10 63 l15 35 1 -37 c0 -21 5
-38 10 -38 6 0 10 -17 10 -38 0 -29 -7 -45 -29 -66 -24 -23 -27 -32 -19 -45 8
-13 2 -34 -27 -91 -21 -41 -44 -102 -52 -135 -8 -33 -27 -83 -43 -111 -28 -49
-28 -53 -11 -68 10 -9 24 -16 33 -16 25 0 50 36 46 67 -2 19 16 65 59 148 33
66 69 147 78 180 10 33 26 74 36 91 25 41 26 124 3 124 -14 0 -16 8 -12 43 6
49 94 275 170 437 28 58 58 125 68 150 10 25 72 155 137 290 l119 245 140 34
c76 18 153 42 170 52 21 13 50 19 88 19 30 0 76 5 100 12 35 9 53 9 83 -1 32
-10 49 -10 106 4 46 11 73 12 85 6 20 -11 128 -4 152 10 10 6 0 9 -30 9 -25 1
-62 4 -82 8 l-37 7 32 52 c26 43 36 52 66 56 20 3 58 0 84 -5 27 -6 51 -7 54
-4 4 3 -4 18 -18 32 -24 26 -45 28 -116 8 -27 -7 -31 11 -5 21 9 4 59 11 109
16 125 12 189 47 176 97 -4 18 -13 22 -43 22 -32 0 -37 3 -33 18 3 13 -6 23
-30 37 -25 13 -39 30 -51 66 -20 54 -33 62 -104 58 -26 -1 -57 3 -69 9 -12 7
-30 13 -40 13 -53 4 57 17 148 18 58 0 135 4 170 8 63 6 64 7 34 19 l-30 13
33 1 c18 0 43 -5 54 -11 16 -9 24 -8 36 5 14 14 11 20 -33 68 -80 86 -100 98
-164 96 -31 -1 -67 2 -81 6 -57 17 -80 29 -80 44 0 13 -24 14 -178 10 -97 -3
-183 -3 -189 -1 -14 5 67 174 137 288 22 36 40 68 40 71 0 3 28 53 63 112 35
59 93 169 130 244 37 76 109 200 160 275 99 147 206 322 256 422 17 33 49 87
70 121 22 34 48 82 57 108 10 26 27 58 40 72 41 46 116 171 135 226 11 30 22
82 26 115 5 51 3 63 -14 82 -30 33 -49 75 -63 142 -18 81 -43 129 -150 291
-15 22 -30 57 -34 76 -8 44 -19 54 -71 64 -24 4 -58 23 -86 46 -38 32 -53 39
-85 37 -33 -2 -55 8 -133 59 -84 55 -99 61 -131 56 -32 -5 -39 -2 -54 21 -16
25 -22 27 -62 22 -68 -7 -167 -61 -213 -115 -113 -131 -157 -190 -188 -251
-19 -36 -47 -88 -63 -116 -16 -27 -64 -131 -106 -230 -42 -99 -109 -241 -149
-315 -83 -151 -112 -215 -144 -311 -12 -37 -31 -75 -41 -84 -11 -10 -20 -26
-20 -37 0 -10 -4 -18 -9 -18 -5 0 -11 -14 -15 -31 -3 -18 -37 -97 -75 -178
-38 -80 -85 -184 -104 -231 -18 -47 -47 -99 -63 -116 -16 -18 -49 -81 -73
-140 -24 -60 -59 -134 -77 -165 -18 -31 -58 -108 -88 -172 -49 -104 -206 -374
-243 -418 -24 -29 -101 -41 -278 -46 -121 -3 -221 -12 -350 -33 -99 -16 -220
-34 -270 -40 -49 -6 -126 -22 -170 -35 -44 -14 -174 -39 -290 -56 -123 -18
-239 -41 -280 -55 -133 -47 -188 -64 -192 -61 -14 15 123 320 228 510 69 123
166 317 203 404 13 32 78 170 144 306 98 203 126 252 150 268 38 23 58 60 75
141 9 41 29 86 56 128 23 36 62 107 87 159 25 52 66 126 91 165 25 39 83 146
128 237 95 190 107 242 80 342 -18 70 -80 179 -128 227 -49 49 -132 163 -170
234 -38 71 -125 169 -164 184 -16 6 -82 18 -148 27 -66 8 -132 17 -147 20 -18
3 -57 -10 -114 -36 -68 -31 -89 -37 -95 -27 -5 7 -9 16 -9 19 0 3 -13 23 -30
44 -16 20 -27 41 -24 46 3 5 -21 36 -53 69 -50 51 -64 60 -93 60 -19 0 -48 -8
-65 -18z m-9562 -1799 c6 -16 27 -50 45 -76 17 -27 32 -58 32 -69 0 -14 12
-24 40 -35 33 -13 40 -21 40 -43 0 -36 18 -87 46 -128 13 -18 26 -54 29 -80 3
-26 16 -87 30 -137 34 -127 44 -199 51 -370 7 -155 -3 -291 -33 -440 -24 -122
-140 -437 -246 -665 -135 -294 -571 -981 -811 -1280 -124 -154 -506 -553 -641
-669 -110 -95 -331 -262 -338 -255 -2 2 -51 -25 -108 -61 -144 -92 -270 -152
-364 -174 -220 -52 -339 -73 -420 -73 -75 -1 -92 3 -141 28 -44 23 -64 41 -92
87 l-35 57 17 153 c43 396 160 810 323 1147 36 74 80 169 98 210 168 386 412
788 678 1118 47 59 106 133 129 164 130 172 703 852 818 971 268 278 475 445
670 542 30 15 74 45 97 66 50 46 69 49 86 12z m11073 -4957 c-13 -25 -12 -32
15 -84 16 -31 29 -62 29 -68 0 -19 -72 -44 -93 -32 -41 22 -45 112 -6 146 10
9 19 22 19 30 0 7 7 29 16 50 l16 37 9 -26 c7 -18 5 -34 -5 -53z"/>
<path d="M29520 32579 c-621 -33 -1126 -108 -1804 -270 -481 -114 -1336 -348
-1411 -385 -20 -10 -43 -13 -67 -9 -55 10 -106 -12 -168 -71 -30 -28 -77 -65
-105 -81 -80 -47 -115 -114 -115 -220 0 -69 15 -100 57 -114 49 -16 100 -64
128 -120 14 -26 29 -50 35 -54 30 -18 43 -72 44 -185 2 -71 7 -124 15 -138 22
-41 69 -53 189 -48 101 4 111 7 165 39 31 19 101 49 155 65 144 46 354 103
359 98 3 -2 -2 -17 -10 -33 -8 -15 -22 -54 -31 -86 -10 -34 -30 -73 -50 -95
-19 -21 -38 -58 -46 -87 -16 -62 -92 -228 -124 -269 -13 -17 -47 -85 -76 -151
-68 -155 -195 -408 -316 -632 -53 -98 -139 -263 -191 -368 -53 -104 -104 -196
-113 -202 -10 -7 -42 -33 -72 -58 -29 -25 -64 -49 -78 -52 -32 -8 -78 -55 -96
-98 -23 -55 -18 -157 11 -229 l25 -63 -299 -611 c-426 -868 -567 -1175 -746
-1632 -40 -102 -103 -250 -141 -330 -138 -297 -153 -338 -142 -378 13 -49 74
-129 188 -249 l94 -98 109 2 c103 3 111 5 133 28 13 14 29 25 36 25 19 1 51
30 76 72 12 20 45 50 72 68 26 17 54 38 60 46 20 23 30 16 19 -13 -7 -20 -6
-30 4 -41 12 -12 17 -9 35 20 11 18 30 58 42 88 12 30 32 66 45 80 25 26 35
50 54 126 7 26 19 44 34 51 31 15 117 173 198 367 37 88 98 213 136 278 39 64
77 143 87 176 13 48 22 62 44 71 22 10 33 28 59 104 17 51 46 129 62 175 36
98 38 109 11 82 -11 -11 -20 -30 -20 -42 0 -13 -7 -32 -15 -42 -8 -11 -15 -35
-15 -53 0 -18 -4 -33 -9 -33 -13 0 -81 -110 -141 -230 -49 -98 -127 -230 -136
-230 -6 0 180 450 292 705 87 197 234 486 268 526 18 22 52 75 76 119 40 74
80 126 80 103 0 -5 -13 -29 -29 -54 -19 -28 -29 -57 -29 -80 0 -19 -9 -53 -21
-75 -12 -21 -21 -48 -20 -59 0 -11 22 24 49 77 68 134 93 146 38 18 -10 -25
-37 -74 -58 -110 -22 -36 -49 -92 -60 -125 -11 -33 -32 -82 -45 -109 -14 -28
-25 -59 -25 -71 0 -12 -11 -36 -25 -55 -14 -19 -25 -39 -25 -45 0 -18 -68
-154 -95 -188 -34 -45 -64 -116 -80 -190 -7 -34 -48 -136 -91 -227 -75 -161
-397 -950 -390 -957 5 -5 193 395 458 977 132 289 308 667 393 840 84 173 179
379 211 458 52 125 62 142 82 142 20 0 21 -3 12 -20 -6 -11 -8 -25 -5 -30 3
-5 -5 -31 -18 -57 -13 -26 -39 -90 -57 -141 -18 -52 -49 -119 -69 -150 -19
-32 -53 -93 -76 -137 -169 -328 -240 -461 -252 -468 -7 -4 -13 -21 -13 -38 0
-16 -11 -51 -24 -77 -45 -89 -124 -287 -184 -462 -57 -165 -141 -368 -181
-435 -10 -17 -21 -44 -25 -60 -4 -17 -13 -37 -21 -45 -7 -8 -16 -26 -20 -40
-3 -14 -19 -50 -35 -80 -31 -62 -48 -111 -32 -95 41 41 387 748 377 772 -5 15
205 416 214 407 3 -2 -25 -64 -62 -137 -83 -163 -114 -249 -86 -231 15 9 3
-29 -28 -86 l-24 -45 7 35 c8 45 -7 30 -30 -29 -15 -39 -15 -43 -2 -32 10 8
16 9 16 3 0 -6 -9 -17 -20 -25 -32 -22 -201 -421 -170 -402 5 3 16 28 25 56
11 33 24 53 39 59 15 5 27 23 35 52 7 23 30 70 51 103 47 73 80 158 73 186 -5
17 -2 20 17 17 20 -3 24 4 41 71 10 40 41 116 69 169 27 52 50 103 50 113 0
10 9 23 20 29 11 6 20 16 20 22 0 6 6 19 14 27 7 9 21 41 29 71 19 65 144 279
196 333 29 31 36 45 36 82 1 28 8 52 20 65 10 11 20 32 21 47 3 30 83 198 109
228 9 11 14 14 10 8 -3 -7 -2 -13 3 -13 14 0 22 26 22 74 0 105 64 223 185
340 40 40 80 88 88 109 15 35 19 37 59 37 24 0 55 7 71 15 15 7 60 19 101 24
40 6 86 16 102 22 16 6 43 13 59 15 17 2 50 17 75 32 64 39 274 99 411 117
129 16 270 56 298 84 10 10 35 20 54 23 32 3 37 1 41 -22 3 -14 19 -106 36
-205 130 -761 411 -1689 729 -2408 88 -198 117 -252 145 -270 15 -10 32 -38
43 -69 10 -29 34 -68 54 -88 19 -19 40 -53 47 -75 6 -23 25 -54 41 -69 25 -24
40 -29 99 -34 103 -7 233 13 255 39 24 30 25 156 0 174 -15 11 -12 14 20 24
20 7 45 23 54 35 10 12 24 21 31 18 27 -9 10 20 -18 31 -41 16 -38 34 10 48
37 11 42 10 63 -9 21 -20 23 -20 34 -4 8 14 7 23 -3 37 -8 10 -14 29 -14 42 0
12 -18 50 -39 83 -22 33 -54 95 -71 138 -37 89 -89 195 -100 202 -14 10 -60
120 -70 167 -6 27 -20 62 -30 79 -11 16 -24 36 -29 44 -5 8 -22 49 -38 90 -21
57 -28 94 -29 155 -1 44 -5 106 -9 138 -6 42 -5 57 4 57 8 0 10 8 6 20 -8 26
6 26 29 -1 11 -13 22 -49 27 -88 5 -36 15 -102 24 -145 8 -44 13 -82 10 -85
-3 -3 -8 5 -12 17 -3 12 -9 22 -13 22 -5 0 -2 -24 7 -52 8 -29 19 -69 24 -90
5 -20 23 -59 40 -87 21 -33 34 -68 37 -102 3 -33 8 -46 13 -37 19 30 7 96 -36
202 -29 70 -45 124 -45 150 1 37 5 28 43 -74 50 -136 219 -510 228 -504 10 6
27 -18 34 -49 7 -25 43 -62 52 -53 10 9 -32 135 -87 262 -33 76 -60 147 -60
157 0 10 -6 31 -14 46 -24 45 -67 228 -71 300 -2 36 -13 104 -25 150 -12 46
-20 95 -17 108 3 14 -8 59 -23 102 -39 107 -73 237 -115 441 -20 96 -49 231
-65 300 -42 179 -102 632 -110 835 -5 123 -12 180 -24 207 -9 21 -16 41 -16
46 0 18 625 370 898 506 418 209 1072 626 1193 760 24 28 59 63 77 80 18 16
42 46 52 66 10 20 30 44 44 54 14 9 26 21 26 27 0 6 18 31 39 57 51 60 84 128
110 222 24 83 49 224 53 285 1 22 5 47 9 55 19 41 41 162 34 192 -4 18 -6 104
-5 191 1 102 -1 157 -8 157 -6 0 -13 -6 -16 -12 -3 -7 -4 0 -2 17 2 16 -5 51
-15 79 -11 27 -18 55 -15 62 7 17 -74 154 -138 233 -221 275 -678 458 -1246
501 -74 5 -278 10 -454 10 -282 0 -317 2 -306 15 14 17 28 17 -220 4z m750
-1054 c104 -16 247 -52 325 -83 43 -17 53 -26 69 -66 18 -41 19 -52 7 -94 -15
-59 -82 -172 -135 -230 -50 -54 -293 -251 -434 -351 -325 -230 -744 -438
-1786 -887 -247 -107 -456 -194 -463 -194 -19 0 -16 40 6 77 11 17 85 158 166
313 185 356 260 490 331 591 71 101 96 175 96 289 1 74 -4 101 -39 205 -61
180 -60 170 -12 202 76 50 444 132 709 158 91 8 273 29 405 45 308 38 291 36
490 38 108 1 205 -4 265 -13z m-980 -4476 c11 -40 29 -90 40 -111 11 -21 29
-55 40 -75 19 -37 44 -172 34 -183 -8 -7 -34 31 -34 49 0 9 -11 40 -25 69 -14
30 -25 64 -25 77 0 13 -13 50 -30 83 -30 62 -60 167 -59 212 0 23 2 22 19 -11
11 -20 28 -70 40 -110z"/>
<path d="M56401 32540 c-157 -10 -302 -25 -422 -46 -57 -9 -101 -11 -130 -6
-36 7 -52 5 -79 -10 -25 -13 -56 -18 -115 -18 -44 0 -143 -11 -219 -25 -77
-14 -172 -25 -210 -25 -132 0 -286 -20 -424 -56 -75 -19 -218 -48 -317 -64
-279 -46 -362 -81 -454 -195 -78 -95 -96 -124 -110 -168 -19 -58 -15 -146 10
-208 11 -30 33 -101 48 -159 22 -86 30 -105 46 -108 56 -8 63 -14 109 -92 83
-141 130 -196 210 -249 41 -27 85 -52 97 -56 12 -4 33 -19 46 -33 19 -21 23
-22 23 -7 0 12 5 15 18 10 117 -49 114 -49 258 -49 l142 -1 -28 -80 c-16 -44
-85 -242 -153 -440 -240 -690 -537 -1517 -812 -2255 -79 -212 -153 -422 -165
-468 -31 -123 -89 -279 -162 -437 -61 -131 -101 -241 -162 -446 -31 -105 -50
-130 -124 -165 -66 -33 -251 -167 -334 -243 -72 -66 -159 -173 -251 -310 -71
-105 -72 -107 -71 -171 0 -48 7 -80 26 -121 25 -55 28 -57 69 -61 37 -4 50 0
79 24 35 28 64 35 88 20 7 -5 10 -16 7 -25 -9 -21 28 -44 83 -53 40 -6 42 -8
42 -42 0 -29 8 -43 43 -77 60 -57 84 -112 113 -261 40 -210 47 -229 90 -242
43 -13 64 -7 64 19 0 24 21 69 32 69 5 0 11 -7 14 -15 4 -10 20 -15 49 -15 59
0 93 14 140 59 22 21 51 45 64 54 18 12 34 48 67 149 24 73 44 147 44 163 l1
30 19 -24 c24 -28 25 -74 8 -214 -8 -69 -9 -100 -1 -108 17 -17 49 37 73 122
32 110 32 109 41 109 12 0 22 -66 17 -115 -8 -71 35 -70 105 3 30 30 44 38 63
34 20 -4 36 5 71 39 70 68 131 168 218 361 44 97 81 175 83 173 2 -1 -9 -58
-24 -125 -21 -98 -25 -126 -15 -146 6 -14 11 -34 11 -45 0 -16 10 -12 64 29
35 27 115 77 177 111 63 35 119 68 124 75 6 7 26 21 45 31 27 15 31 20 17 23
-10 2 -41 -11 -69 -29 -40 -26 -61 -33 -98 -32 -47 1 -48 0 -63 -38 -9 -22
-20 -39 -25 -39 -11 0 -28 41 -35 85 -6 30 -4 32 148 119 109 62 161 98 177
122 13 19 28 34 34 34 7 0 14 7 18 15 3 8 13 15 23 15 17 -1 17 -2 -1 -15 -11
-8 -17 -17 -15 -20 10 -10 81 59 114 111 38 58 75 83 138 90 23 3 44 10 45 15
8 21 36 40 52 36 9 -2 22 4 29 14 6 11 22 19 35 19 15 0 51 21 88 51 35 28 81
59 103 69 47 21 125 34 125 21 0 -13 -47 -41 -69 -41 -13 0 -23 -9 -27 -24 -7
-30 -130 -104 -247 -151 -107 -42 -123 -51 -177 -98 -25 -21 -71 -52 -102 -68
-37 -19 -63 -40 -73 -59 -9 -17 -23 -30 -31 -30 -9 0 -18 -9 -21 -20 -4 -14
-22 -25 -62 -37 -57 -17 -91 -38 -91 -56 0 -20 72 3 121 37 27 20 57 36 67 36
15 -1 15 -2 -3 -16 -11 -9 -45 -28 -75 -44 -30 -15 -66 -37 -80 -49 l-25 -21
55 16 c68 19 180 79 282 151 71 49 232 133 256 133 6 0 13 13 17 28 5 23 15
32 58 46 88 31 136 63 130 86 -6 22 -32 27 -50 9 -6 -6 -17 -8 -23 -4 -7 4 19
17 60 31 97 33 144 58 285 151 138 91 308 193 323 193 6 0 14 13 20 28 9 27
82 82 82 62 0 -13 72 18 95 42 l20 20 -21 -10 c-15 -8 -24 -8 -32 0 -23 23
-11 33 70 68 67 28 98 50 164 113 62 59 97 83 145 102 34 14 109 52 165 86
138 81 172 75 45 -9 -51 -34 -100 -62 -107 -62 -8 0 -19 -11 -24 -25 -5 -13
-24 -32 -42 -41 -131 -66 -238 -151 -238 -189 0 -3 26 12 58 33 31 22 83 54
116 72 32 18 85 58 117 87 32 30 60 54 63 54 29 -3 47 2 67 20 13 11 18 18 12
14 -27 -13 -11 12 18 29 17 10 58 42 91 72 34 30 72 57 84 60 13 4 24 12 24
19 0 26 36 56 80 66 45 10 80 33 80 52 0 6 -8 3 -18 -6 -10 -10 -24 -17 -30
-17 -49 0 63 89 157 124 53 21 81 39 121 82 33 35 59 54 74 54 13 0 27 7 30
16 9 22 8 24 -11 24 -12 0 -7 7 16 23 18 12 60 45 93 74 32 28 76 57 96 64 20
6 62 32 92 58 53 44 344 317 385 361 11 11 126 128 256 258 271 273 460 498
586 698 21 33 62 92 90 130 52 68 176 297 208 384 132 353 160 486 159 730 -1
96 -7 247 -14 335 -12 155 -14 165 -65 300 -29 77 -60 163 -69 192 -9 28 -23
54 -31 56 -7 3 -33 36 -57 74 -52 79 -103 133 -283 298 -194 177 -331 272
-521 361 -321 150 -828 264 -1269 283 -320 15 -794 20 -944 11z m1243 -1265
c193 -25 357 -66 523 -131 96 -37 123 -60 137 -117 7 -28 28 -54 62 -73 14 -8
18 -21 17 -54 -1 -24 4 -55 11 -69 44 -85 33 -219 -29 -354 -19 -42 -35 -87
-35 -100 0 -14 -17 -51 -39 -83 -21 -33 -87 -149 -146 -259 -161 -299 -172
-316 -320 -495 -204 -247 -275 -321 -383 -401 -53 -40 -158 -125 -232 -188
-133 -114 -162 -138 -330 -268 -323 -250 -746 -546 -1399 -977 -174 -114 -379
-252 -456 -306 -140 -97 -155 -102 -141 -46 3 12 32 53 65 90 54 61 63 78 104
200 26 74 51 165 58 202 15 87 37 138 82 192 20 24 44 69 54 100 10 31 23 63
30 70 7 7 13 24 13 37 0 42 48 187 114 349 67 164 92 240 146 454 31 126 69
230 119 330 15 31 36 82 46 112 23 72 152 392 222 550 31 69 90 211 133 315
43 105 89 215 103 245 13 30 28 71 32 90 4 19 18 49 31 67 13 17 33 57 45 90
23 62 129 255 157 287 30 33 97 66 178 86 106 27 299 59 431 70 145 12 450 4
597 -15z m-1859 -4504 c-16 -27 -142 -110 -230 -151 -55 -26 -128 -68 -163
-94 -35 -26 -67 -44 -73 -40 -5 3 -16 1 -23 -5 -7 -6 -20 -9 -29 -6 -9 4 -34
-11 -66 -39 -29 -25 -59 -46 -68 -46 -14 0 -14 2 3 15 10 8 22 15 26 15 4 0
20 12 35 26 15 15 57 40 93 56 90 40 120 57 158 90 18 15 38 28 43 28 6 0 20
11 30 24 11 14 34 26 56 29 21 4 60 21 87 39 27 18 61 41 75 50 28 19 56 24
46 9z m-726 -423 c-1 -28 -15 -43 -39 -43 -32 0 -73 -41 -65 -65 11 -36 -230
-178 -242 -142 -3 6 -9 10 -14 6 -5 -3 -9 0 -9 6 0 17 43 53 100 84 29 16 98
59 154 97 105 72 116 77 115 57z"/>
<path d="M52755 32279 c-221 -17 -540 -73 -995 -174 -107 -24 -306 -64 -442
-90 l-247 -48 -78 54 c-43 30 -107 84 -143 120 -63 65 -113 99 -145 99 -8 0
-15 4 -15 8 0 15 -49 32 -92 32 -70 0 -117 -31 -219 -147 -136 -154 -167 -198
-185 -262 -29 -102 -181 -380 -369 -676 -146 -229 -198 -321 -332 -585 -66
-129 -190 -370 -276 -535 -86 -165 -197 -390 -247 -500 -51 -110 -130 -282
-176 -382 -46 -100 -84 -188 -84 -196 0 -8 -9 -26 -20 -40 -11 -14 -39 -74
-61 -132 -40 -108 -58 -143 -91 -181 -59 -66 -339 -929 -483 -1486 -19 -73
-43 -159 -55 -190 -11 -32 -20 -64 -20 -73 0 -8 -32 -131 -72 -273 l-72 -257
-4 -170 c-6 -237 9 -295 97 -390 40 -43 60 -76 101 -165 4 -8 18 -20 31 -27
172 -83 321 -161 344 -181 41 -35 90 -54 116 -44 18 7 46 2 114 -20 145 -48
209 -48 400 1 174 45 266 83 330 136 50 41 224 115 270 115 19 0 60 6 92 14
32 8 74 17 94 20 20 4 48 17 63 31 25 23 428 196 491 211 17 4 41 15 55 24 14
10 55 20 94 23 54 5 75 12 95 31 37 34 83 55 136 63 41 5 48 10 65 44 14 27
31 41 62 53 76 29 177 53 200 49 22 -4 129 22 192 46 23 9 26 14 16 26 -14 17
19 40 126 85 96 40 174 59 266 67 l76 6 53 53 c30 30 58 54 64 54 5 0 117 48
248 107 224 101 238 109 232 131 -5 19 0 25 30 38 28 11 35 20 35 42 0 26 9
33 108 80 59 28 143 65 187 81 44 16 103 39 130 51 28 12 90 30 138 41 106 22
144 39 187 84 35 36 33 41 -23 47 -40 4 -37 18 14 57 l44 34 -50 -6 -50 -6 35
30 c19 17 49 37 66 44 17 8 36 21 44 29 7 9 19 16 26 16 8 0 14 6 14 14 0 8
12 28 26 45 41 49 23 61 -93 61 l-95 0 26 34 c14 19 26 39 26 45 0 6 9 15 21
22 13 7 19 17 16 29 -4 16 8 23 78 45 46 14 88 32 95 40 6 7 10 33 8 56 -2 36
-9 47 -36 66 -55 36 -129 46 -321 41 -241 -7 -451 -48 -851 -168 -107 -32
-245 -72 -305 -89 -61 -16 -174 -52 -250 -79 -77 -27 -237 -80 -355 -117 -267
-84 -899 -310 -1023 -366 -50 -23 -164 -67 -252 -99 -88 -32 -182 -67 -210
-77 -27 -11 -77 -25 -110 -31 -33 -6 -109 -21 -170 -33 -137 -26 -178 -19
-202 39 -13 32 -14 49 -3 122 22 162 42 265 57 300 8 19 79 188 158 375 165
392 265 619 297 676 19 34 30 42 78 56 32 10 94 17 150 17 92 1 98 2 136 33
46 36 128 62 304 93 69 13 133 27 142 32 10 4 53 13 95 18 43 4 112 21 153 35
41 15 129 38 194 51 161 32 205 48 289 104 85 57 192 92 342 110 127 15 285
52 350 81 30 13 76 23 115 25 162 9 365 40 398 60 15 10 22 24 22 47 1 38 33
79 77 96 18 7 33 20 35 28 2 8 27 23 57 34 109 38 167 101 143 154 -7 15 -22
29 -33 32 -16 4 -18 8 -7 14 7 5 -39 9 -111 9 l-123 0 6 38 c10 55 27 92 42
92 8 0 36 16 63 35 30 20 51 30 53 23 5 -13 132 66 159 98 21 25 31 81 21 118
-10 37 -29 43 -180 56 -136 12 -317 1 -542 -35 -85 -13 -227 -31 -315 -40
-483 -47 -1116 -159 -1474 -261 l-25 -7 28 49 c16 27 57 88 92 137 35 48 64
90 64 92 0 3 37 55 83 117 156 211 267 387 303 478 10 25 28 59 40 75 12 17
29 46 37 66 8 20 30 48 48 61 34 25 165 72 289 103 36 9 121 41 190 70 306
130 405 163 590 194 233 40 265 46 335 70 68 23 102 26 141 11 22 -9 35 -6 73
13 45 24 90 30 364 52 69 6 140 35 182 75 17 15 60 42 98 60 87 41 137 109
137 185 0 14 7 25 19 28 12 3 21 15 23 33 2 20 10 30 28 34 19 4 28 16 38 52
14 50 27 58 96 58 36 0 38 1 24 18 -31 35 -48 82 -48 135 0 68 34 119 109 162
38 22 57 42 75 78 13 26 22 56 19 66 -8 31 -67 52 -167 61 -50 5 -138 16 -196
24 -116 17 -595 20 -795 5z"/>
<path d="M39230 26755 c-47 -13 -165 -51 -262 -84 -163 -54 -233 -90 -214
-108 4 -4 64 12 134 35 70 23 132 42 137 42 6 0 -46 -28 -115 -62 -69 -34
-130 -61 -136 -60 -6 1 -19 -7 -29 -18 -18 -19 -17 -20 3 -20 11 0 23 6 25 13
4 9 7 9 15 -1 7 -10 21 -5 62 23 33 22 62 34 79 33 16 -2 25 2 24 10 -2 6 1
12 6 12 5 0 18 3 28 6 15 5 16 4 3 -6 -12 -9 -3 -11 41 -7 59 6 125 33 150 63
13 16 12 16 -16 2 -16 -8 -51 -20 -76 -26 -26 -7 -55 -14 -65 -18 -11 -3 9 9
44 27 34 18 74 43 88 55 13 13 58 37 98 54 40 17 82 37 92 45 18 14 18 14 -6
14 -14 0 -63 -11 -110 -24z"/>
<path d="M38160 26230 c-36 -11 -78 -17 -93 -14 -18 4 -35 0 -45 -9 -9 -8 -43
-22 -74 -31 -31 -9 -94 -32 -140 -52 -45 -19 -114 -44 -151 -54 -38 -11 -92
-32 -121 -48 -87 -50 -189 -90 -263 -106 -44 -9 -110 -35 -172 -67 -73 -37
-107 -50 -125 -45 -19 5 -29 -1 -50 -29 -30 -39 -73 -65 -109 -65 -13 0 -36
-13 -52 -30 -22 -23 -38 -30 -67 -30 -20 0 -58 -7 -84 -16 -26 -9 -50 -12 -53
-7 -3 4 -19 -4 -35 -19 -21 -21 -24 -28 -12 -28 9 0 16 -4 16 -10 0 -5 -12
-10 -26 -10 -18 0 -38 -13 -65 -42 -21 -23 -37 -44 -35 -45 2 -2 59 24 127 58
108 53 120 65 45 42 -13 -3 -16 -1 -11 7 10 16 69 40 100 40 28 0 34 -16 8
-23 -17 -4 -17 -5 0 -6 10 0 25 5 32 13 8 7 31 16 52 19 21 4 47 14 58 23 11
8 14 13 8 9 -27 -13 -11 4 21 24 38 24 59 28 30 6 -28 -21 -19 -19 86 23 52
20 120 56 150 78 80 60 163 104 193 104 15 0 93 26 174 59 82 32 159 62 173
66 14 4 46 18 72 31 54 28 87 30 127 10 24 -13 31 -13 57 0 42 21 69 55 52 65
-10 7 -9 9 4 9 11 0 15 5 12 14 -6 17 27 30 54 22 9 -3 31 1 47 10 17 9 64 29
105 45 86 32 76 37 -20 9z"/>
<path d="M37525 25841 c-55 -21 -154 -66 -220 -100 -140 -72 -136 -72 43 3 72
30 132 51 132 47 0 -23 -155 -111 -195 -111 -17 0 -80 -59 -71 -67 7 -8 95 39
196 105 47 30 112 68 145 83 59 27 59 28 20 23 l-40 -5 55 30 c74 40 55 38
-65 -8z"/>
<path d="M25741 24271 c-18 -5 -46 -18 -62 -30 -15 -12 -37 -21 -48 -21 -14 0
-19 -5 -15 -15 4 -10 0 -15 -14 -15 -11 0 -55 -29 -98 -65 -43 -35 -100 -77
-128 -91 -37 -20 -65 -46 -101 -97 -80 -110 -133 -174 -163 -195 -15 -11 -43
-51 -63 -89 -19 -38 -112 -185 -206 -328 -94 -143 -232 -368 -308 -500 -150
-261 -251 -415 -465 -713 -77 -107 -170 -244 -207 -305 -71 -120 -127 -199
-240 -340 -39 -48 -107 -141 -151 -205 -83 -120 -123 -170 -274 -337 -48 -52
-108 -128 -134 -168 -27 -40 -154 -216 -285 -393 -130 -176 -348 -478 -484
-670 -229 -321 -315 -448 -530 -779 -43 -66 -108 -158 -145 -205 -37 -47 -84
-110 -103 -141 -61 -95 -145 -150 -302 -196 -278 -82 -397 -115 -520 -143 -77
-18 -194 -49 -260 -71 -107 -34 -131 -47 -220 -113 -211 -156 -268 -252 -311
-521 -21 -134 -24 -489 -5 -610 24 -157 34 -177 128 -250 46 -37 90 -68 97
-71 7 -3 33 0 57 5 37 9 46 8 57 -6 11 -16 15 -16 60 1 88 34 147 46 225 46
42 0 77 -2 77 -5 0 -16 -101 -204 -320 -595 -137 -244 -494 -916 -542 -1020
-14 -30 -62 -133 -107 -229 -61 -131 -78 -177 -70 -187 6 -7 8 -22 4 -33 -3
-10 -3 -31 1 -45 5 -21 17 -29 71 -46 36 -11 93 -20 127 -20 68 0 90 -9 80
-33 -3 -10 3 -28 15 -43 12 -15 21 -37 21 -51 0 -31 26 -93 39 -93 5 0 65 -25
133 -56 154 -71 209 -87 270 -78 46 6 48 7 84 72 20 37 50 85 67 107 37 49
129 145 138 145 13 0 20 -52 8 -66 -17 -21 5 -17 23 4 8 9 25 35 37 57 13 22
45 57 71 77 50 39 149 92 156 85 3 -2 7 -27 11 -56 3 -28 10 -51 14 -51 5 0 9
5 9 10 0 6 5 10 10 10 18 0 11 -64 -11 -95 -33 -49 -69 -123 -69 -142 1 -38
112 167 137 252 8 27 30 77 48 110 18 33 43 85 56 115 12 30 33 66 46 81 12
14 23 29 23 34 0 4 10 22 23 39 13 17 58 96 101 175 76 143 165 285 173 277 2
-2 -8 -39 -23 -81 -18 -51 -39 -88 -61 -110 -34 -33 -43 -74 -23 -105 8 -13
10 -13 10 2 0 9 8 23 18 30 11 7 25 24 32 38 7 14 25 35 41 48 16 13 29 32 29
43 0 32 18 59 89 135 50 53 88 111 155 234 49 89 113 196 142 236 29 41 58 93
65 116 18 67 53 128 118 209 34 41 82 115 108 164 25 50 78 135 117 190 80
112 86 110 66 -18 -13 -85 -51 -169 -89 -196 -33 -24 -81 -110 -80 -142 1 -13
-3 -36 -9 -50 -6 -16 -7 -40 -2 -63 6 -26 5 -36 -4 -36 -18 0 -51 -39 -67 -80
-7 -19 -41 -65 -75 -101 -34 -36 -67 -82 -75 -102 -7 -20 -18 -37 -24 -37 -31
0 -54 -55 -57 -132 -1 -31 -5 -37 -29 -42 -39 -8 -92 -58 -108 -102 -7 -22
-26 -59 -42 -83 -21 -32 -29 -57 -29 -88 0 -54 -19 -91 -81 -163 -62 -71 -119
-190 -91 -190 14 0 78 53 105 85 13 17 34 49 46 72 27 54 73 106 117 134 19
11 41 36 48 54 8 18 34 52 59 75 41 37 45 45 40 75 -3 19 -2 59 2 90 5 47 11
58 31 65 16 6 24 17 24 32 0 13 3 32 6 43 6 21 86 65 116 65 25 0 32 19 18 45
-17 31 -7 54 29 66 17 6 39 26 51 46 11 19 29 37 40 40 23 6 27 50 9 84 -8 16
-3 28 35 72 25 28 62 85 82 127 20 41 48 98 61 127 14 28 52 81 84 118 33 36
59 72 59 80 0 26 71 149 98 172 l27 21 -17 50 c-10 27 -18 56 -17 63 0 8 19
29 42 47 67 54 224 198 328 301 82 82 140 154 265 327 46 63 176 114 364 144
77 13 223 61 255 84 11 8 18 27 19 52 l1 39 59 -3 c54 -2 61 0 97 33 40 36 79
46 79 20 0 -16 25 -21 34 -6 4 5 30 12 59 16 28 4 80 18 114 31 104 39 209
108 137 90 -19 -5 -25 -4 -19 2 15 15 326 87 545 127 107 19 202 38 210 41 8
3 78 11 156 19 88 9 171 24 220 40 77 24 185 33 211 17 8 -5 8 -66 -2 -252
-49 -886 -45 -1436 15 -2485 21 -352 33 -494 69 -835 52 -487 81 -569 204
-585 29 -4 76 -20 106 -36 l54 -29 43 22 c35 17 44 27 46 52 2 17 8 30 13 30
6 -1 25 -4 43 -7 30 -6 33 -4 48 34 19 45 56 69 144 89 61 14 115 42 124 65 3
8 16 15 30 15 49 0 106 95 106 178 0 54 14 74 47 66 16 -5 21 0 26 23 3 16 22
57 42 91 20 34 39 79 42 101 4 28 9 38 19 34 10 -4 14 3 14 23 0 38 31 158 68
269 17 50 34 121 38 158 6 59 11 72 44 108 35 38 38 46 43 122 4 45 20 129 36
187 l30 105 -2 -81 c-1 -77 9 -114 33 -114 4 0 10 39 13 88 3 48 15 113 26
144 20 59 25 86 21 128 -2 24 -3 23 -10 -5 l-7 -30 -11 28 c-15 36 -15 119 -1
151 7 14 15 24 18 22 11 -7 1 278 -11 319 -7 22 -13 108 -14 195 0 85 -6 169
-11 185 l-11 30 -10 -25 c-22 -52 -13 65 13 164 27 105 31 173 14 242 -23 89
-40 38 -36 -108 1 -63 -2 -90 -12 -100 -11 -11 -13 -4 -8 42 12 112 18 357 9
405 l-8 50 -8 -65 c-5 -36 -14 -76 -21 -90 -9 -18 -12 -50 -8 -105 7 -106 -6
-168 -70 -335 l-54 -140 23 -26 c13 -14 24 -33 23 -42 0 -10 -3 -12 -6 -4 -10
25 -23 10 -39 -44 -11 -40 -19 -53 -25 -43 -13 21 -29 -7 -29 -52 0 -20 -7
-42 -15 -49 -14 -11 -14 -10 -5 15 16 42 18 147 3 152 -9 3 -13 33 -13 101 0
77 -2 93 -12 83 -9 -8 -13 -55 -14 -159 0 -93 -4 -154 -12 -167 -14 -25 -14 5
-2 370 9 291 23 405 51 412 9 3 27 26 38 51 11 26 20 44 21 39 0 -4 -11 -74
-25 -155 -13 -81 -28 -184 -33 -229 -7 -75 -7 -83 9 -83 10 0 21 5 24 10 17
27 26 6 19 -49 -11 -98 11 -79 42 37 19 73 29 136 31 197 2 90 0 94 -12 20 -6
-34 -8 -37 -17 -21 -7 13 -8 60 -3 140 13 206 1 323 -21 201 l-11 -60 -7 96
c-9 106 -9 107 36 227 23 62 29 87 21 104 -8 18 -13 10 -36 -58 -33 -96 -57
-221 -57 -291 0 -28 -4 -55 -10 -58 -5 -3 -10 0 -10 7 0 23 -20 -15 -20 -39 0
-13 -5 -23 -11 -23 -16 0 -5 287 15 375 27 123 26 119 39 106 6 -6 12 -21 12
-33 0 -12 5 -23 11 -25 13 -4 34 69 35 124 0 33 1 35 9 16 15 -38 27 -26 44
45 13 52 16 106 14 237 l-3 170 34 70 34 70 7 -35 c4 -19 8 -31 9 -26 0 5 7 3
14 -3 19 -15 27 -4 21 29 -6 26 -5 27 51 34 32 3 131 31 221 61 118 40 179 55
218 55 37 0 58 5 67 16 22 26 -8 35 -94 28 -65 -5 -85 -3 -111 11 l-33 18 -77
-42 c-52 -29 -82 -40 -97 -36 -19 6 -19 8 -4 25 23 26 56 37 169 60 62 12 127
33 172 55 71 35 74 36 157 29 l84 -6 13 31 c9 23 29 40 69 61 31 15 74 46 95
69 33 33 44 39 68 34 16 -3 47 2 73 12 25 9 57 14 72 11 55 -11 192 147 193
222 0 22 23 31 35 12 3 -5 12 -10 20 -10 21 0 12 86 -12 118 -11 15 -46 40
-78 55 -38 18 -54 31 -47 36 7 4 10 15 6 24 -5 14 -20 17 -72 17 -36 0 -63 2
-61 5 3 2 75 5 160 7 141 2 159 0 198 -19 40 -20 41 -20 25 -2 -24 26 -7 42
26 26 14 -7 33 -30 43 -51 10 -21 21 -36 23 -33 3 3 0 15 -6 27 -6 11 -10 35
-8 53 3 27 8 33 43 43 28 7 41 17 43 31 4 25 3 25 -233 50 -203 22 -681 24
-993 4 -122 -8 -225 -11 -228 -8 -3 3 -6 216 -7 474 -2 390 1 493 15 618 10
83 36 382 58 665 42 547 56 679 95 910 14 80 32 246 40 369 9 123 22 256 30
295 44 224 42 361 -8 437 -13 19 -36 70 -52 113 -58 162 -179 300 -330 378
-63 32 -86 50 -104 80 -13 24 -48 55 -91 84 -39 25 -75 54 -80 63 -5 11 -37
25 -76 36 -46 12 -96 37 -160 80 -56 38 -112 67 -141 74 -50 11 -243 12 -243
1 0 -3 -20 -16 -45 -28 -24 -12 -62 -37 -83 -57 l-39 -35 -85 40 c-47 22 -123
49 -169 60 -93 23 -266 34 -318 21z m205 -3163 c-4 -51 -12 -151 -17 -223 -6
-71 -12 -357 -14 -635 -2 -448 -7 -572 -31 -791 l-6 -56 -117 -7 c-318 -20
-652 -79 -986 -176 -85 -25 -382 -123 -437 -145 -13 -5 -18 -2 -18 8 0 8 -6
17 -12 20 -8 3 22 41 73 93 47 49 118 130 159 179 41 50 115 137 165 195 102
117 191 247 231 336 48 107 106 195 156 237 84 72 210 204 234 247 13 22 45
66 72 98 27 31 127 174 222 317 95 143 187 277 203 299 31 39 102 96 120 96 6
0 7 -33 3 -92z m1154 -4989 c9 -15 9 -33 0 -70 -10 -42 -10 -53 4 -74 14 -21
15 -32 6 -65 -8 -31 -7 -51 5 -92 8 -28 15 -79 15 -111 0 -59 1 -60 19 -43 34
31 60 110 68 203 6 79 9 91 34 114 25 23 28 24 32 7 8 -28 -5 -138 -16 -138
-5 0 -7 18 -3 45 4 27 3 45 -2 45 -13 0 -29 -74 -41 -185 -5 -49 -14 -103 -20
-118 -8 -21 -8 -34 0 -49 18 -34 4 -153 -30 -253 -44 -128 -42 -125 -57 -80
-14 46 -17 122 -5 182 20 106 -25 -7 -60 -150 -19 -78 -31 -67 -27 24 2 54 14
116 31 173 l27 89 -20 94 c-24 113 -25 132 -3 178 14 30 15 39 4 57 -9 15 -11
41 -6 92 13 148 21 171 45 125z"/>
<path d="M36708 21574 c-15 -8 -35 -28 -43 -44 -15 -29 -69 -60 -104 -60 -52
0 -238 -267 -271 -389 -6 -25 -22 -58 -35 -75 -64 -86 -229 -464 -331 -763
-22 -62 -45 -114 -53 -115 -7 -2 -27 -51 -47 -118 -18 -63 -65 -194 -105 -290
-39 -96 -104 -260 -144 -365 -41 -104 -99 -248 -130 -320 -32 -71 -110 -287
-175 -480 -135 -404 -161 -468 -276 -702 -81 -163 -87 -173 -114 -173 -16 0
-30 -6 -33 -12 -3 -9 -13 -5 -32 12 -22 20 -29 22 -33 10 -3 -8 -18 -27 -33
-43 -25 -25 -34 -27 -96 -26 -54 1 -80 -5 -126 -26 -60 -28 -87 -28 -87 0 0
25 -34 14 -38 -12 -2 -12 -19 -33 -38 -48 -19 -14 -34 -34 -34 -43 0 -14 -11
-18 -62 -20 -44 -3 -71 -10 -96 -27 l-35 -24 -21 62 c-30 89 -73 151 -173 247
-111 107 -249 224 -271 229 -26 6 -62 32 -56 42 10 16 -49 32 -121 33 -39 1
-106 11 -151 24 -158 44 -230 52 -574 62 -184 5 -396 14 -470 20 -208 16 -423
17 -535 1 -146 -20 -1638 -22 -1707 -2 -58 16 -88 44 -88 79 0 36 106 139 227
220 50 34 94 69 98 79 6 20 333 268 435 331 36 23 84 57 108 76 24 20 50 36
57 36 8 0 142 68 297 151 580 311 900 457 1081 494 62 13 136 31 164 40 41 13
77 16 157 13 58 -2 107 -6 111 -9 3 -4 -14 -40 -38 -80 -24 -41 -85 -150 -137
-244 -51 -93 -108 -194 -127 -223 -22 -35 -32 -60 -28 -73 4 -13 -2 -27 -21
-44 -15 -14 -31 -25 -35 -25 -17 0 -31 -84 -24 -144 9 -75 41 -163 63 -175 9
-4 53 -11 96 -15 99 -8 146 -34 146 -82 0 -38 10 -47 75 -64 28 -7 73 -26 100
-41 74 -41 180 -79 223 -79 80 0 210 104 260 208 16 32 47 83 69 113 22 29 50
72 61 94 11 22 36 65 56 95 20 30 70 121 110 201 41 80 95 175 120 210 25 36
61 94 81 130 46 80 228 490 221 496 -3 3 7 24 23 47 42 61 65 111 97 206 25
78 28 98 28 235 0 161 -13 222 -68 305 -12 19 -28 57 -35 84 -20 82 -57 163
-135 295 -41 69 -87 152 -102 183 -22 45 -33 58 -53 60 -20 2 -27 9 -29 31 -3
27 -10 31 -44 28 -10 -1 -18 4 -18 11 0 15 -58 44 -78 40 -7 -2 -33 4 -57 13
-24 10 -49 14 -56 9 -7 -4 -123 -35 -258 -70 -284 -72 -461 -129 -756 -244
-115 -45 -308 -120 -428 -165 -257 -99 -386 -162 -562 -276 -72 -46 -222 -130
-335 -188 -113 -57 -241 -129 -284 -158 -43 -30 -106 -68 -140 -85 -34 -17
-86 -48 -116 -69 -30 -22 -103 -71 -162 -110 -60 -39 -108 -75 -108 -79 0 -5
-45 -32 -101 -62 -130 -69 -266 -171 -460 -345 -152 -137 -237 -207 -351 -295
-194 -147 -324 -279 -420 -426 -36 -53 -123 -187 -195 -297 l-131 -200 -16
-125 c-28 -223 -25 -257 43 -438 101 -265 204 -468 269 -529 15 -14 56 -39 91
-55 35 -15 79 -41 97 -57 17 -16 61 -38 96 -49 182 -57 218 -62 298 -45 25 5
57 6 73 2 15 -4 69 -3 120 2 50 4 134 9 185 9 80 0 97 -3 122 -22 29 -21 30
-21 70 -3 30 14 53 16 98 12 35 -4 75 -1 102 6 29 9 101 12 205 11 247 -2 239
-2 225 -19 -18 -22 1 -19 57 9 87 43 309 79 508 82 521 9 1229 10 1363 3 167
-9 212 -15 212 -29 0 -14 -121 -139 -155 -160 -19 -11 -78 -36 -132 -54 -54
-19 -125 -46 -158 -60 -33 -15 -229 -90 -435 -168 -743 -278 -993 -381 -1690
-698 -625 -285 -973 -438 -1055 -465 -65 -22 -282 -119 -490 -220 -49 -24
-135 -74 -190 -110 -55 -36 -107 -68 -115 -71 -8 -3 -28 -26 -45 -52 -23 -36
-40 -50 -75 -62 -68 -23 -95 -80 -106 -219 -8 -114 -9 -359 -1 -367 3 -3 19 2
36 11 29 15 51 13 51 -3 0 -4 -23 -18 -51 -30 -41 -19 -48 -26 -38 -38 6 -8
16 -14 21 -14 5 0 18 -10 28 -22 17 -22 19 -22 53 -6 20 9 41 29 49 44 17 35
46 54 56 37 5 -8 13 -9 22 -3 8 6 29 10 45 10 39 0 133 48 277 142 78 50 132
79 160 83 25 5 57 19 76 36 20 18 44 29 62 29 16 0 45 11 64 24 19 13 53 26
74 30 22 3 69 19 104 36 34 16 70 30 79 30 8 0 26 11 39 25 13 14 34 25 47 25
32 0 78 21 141 63 29 20 70 39 90 43 20 4 89 24 152 45 63 21 136 41 162 44
27 4 46 12 45 19 -3 17 -30 25 -51 14 -16 -9 -18 -7 -13 7 4 9 7 19 7 21 0 2
12 4 28 4 15 0 63 18 106 40 43 22 93 40 110 40 18 0 37 5 44 12 8 8 15 8 26
-1 11 -9 20 -10 35 -2 11 6 27 11 37 11 9 0 38 13 64 30 54 34 104 48 115 30
5 -8 12 -5 22 10 8 12 24 20 36 19 12 0 31 -1 42 0 16 1 17 3 5 11 -12 7 -11
12 5 31 11 12 34 28 50 35 17 7 39 22 49 33 16 18 31 21 102 21 79 0 113 12
84 30 -17 11 7 24 46 26 61 2 125 26 134 50 7 17 23 25 79 38 38 9 80 16 93
16 13 0 51 7 83 16 33 9 80 16 105 15 28 -1 72 8 113 24 37 13 93 28 124 32
39 4 62 12 71 25 7 10 22 18 32 18 10 0 49 16 86 35 68 36 98 42 123 26 21
-13 -82 -62 -199 -95 -106 -31 -132 -46 -79 -47 l34 0 -30 -14 c-16 -8 -56
-21 -87 -30 -56 -15 -70 -27 -48 -40 17 -10 11 -25 -10 -25 -11 0 -39 8 -62
17 -34 14 -43 14 -46 3 -3 -7 -16 -24 -30 -37 -14 -13 -22 -26 -19 -29 3 -4
35 1 71 10 36 9 72 16 80 16 9 0 45 20 82 45 53 36 74 45 109 45 24 0 47 -4
50 -10 3 -6 -4 -10 -18 -10 -13 0 -68 -22 -122 -50 -54 -27 -106 -50 -116 -50
-10 0 -35 -12 -56 -26 -28 -19 -48 -24 -78 -22 -36 3 -40 1 -43 -22 -5 -35
-29 -50 -79 -50 -24 0 -43 -4 -43 -9 0 -18 -32 -41 -57 -41 -16 0 -27 -7 -30
-19 -3 -13 -17 -20 -44 -24 -21 -3 -53 -17 -70 -31 -17 -14 -37 -26 -44 -26
-7 0 -26 -10 -42 -23 -15 -13 -68 -36 -118 -51 -49 -15 -157 -56 -240 -91 -82
-35 -175 -71 -205 -81 -30 -9 -103 -41 -161 -71 -59 -29 -126 -60 -149 -68
-78 -28 -261 -107 -256 -112 6 -6 149 40 217 71 63 28 174 61 234 71 37 6 38
5 20 -8 -11 -8 -39 -20 -62 -26 -22 -6 -46 -18 -53 -26 -20 -24 3 -19 73 16
34 17 56 25 50 18 -20 -20 -15 -27 15 -21 22 4 25 2 15 -9 -23 -23 -14 -28 22
-13 19 7 64 14 100 14 41 0 64 4 60 10 -3 6 1 7 10 4 14 -6 14 -8 -2 -19 -15
-12 -16 -14 -3 -19 41 -14 130 19 130 49 0 15 17 31 62 58 53 31 68 36 101 30
39 -6 40 -6 33 21 -8 34 13 44 47 21 22 -14 25 -14 30 0 8 19 27 20 27 0 0
-18 8 -18 39 -1 24 13 24 14 3 25 -11 6 -27 11 -34 11 -7 0 -19 4 -27 9 -12 8
-12 12 -2 25 19 23 0 21 -69 -5 -45 -17 -284 -79 -305 -79 -3 0 -3 6 1 13 4 6
-2 4 -13 -5 -20 -18 -142 -63 -149 -55 -7 6 83 62 137 86 25 12 75 28 110 37
35 9 88 29 118 45 30 16 69 29 87 29 19 0 56 14 91 34 85 50 357 127 321 91
-3 -3 -38 -15 -79 -26 -69 -19 -432 -160 -426 -165 1 -2 52 12 113 30 118 35
207 39 218 10 3 -8 0 -14 -7 -15 -7 0 -1 -5 12 -10 18 -7 37 -5 69 5 24 9 49
13 55 9 5 -3 16 2 23 11 11 16 17 16 47 5 30 -11 45 -9 126 16 90 28 102 38
68 59 -13 8 -29 6 -64 -8 -27 -10 -63 -19 -81 -20 -21 -1 -34 -7 -38 -18 -5
-16 -8 -17 -34 -3 -16 8 -36 15 -45 15 -8 0 -15 4 -15 10 0 11 24 17 91 23 52
5 105 28 102 45 -4 16 34 34 56 27 10 -3 24 1 31 10 7 8 27 15 45 15 18 0 44
9 59 21 31 25 43 20 26 -10 -14 -26 6 -29 50 -6 17 9 30 11 30 6 0 -5 -6 -12
-12 -15 -10 -5 -10 -7 0 -12 20 -10 3 -24 -31 -25 -30 -1 -31 -1 -7 -8 31 -10
64 5 56 25 -9 23 38 40 69 26 14 -7 39 -12 55 -12 22 0 28 4 23 16 -3 8 -12
13 -20 10 -8 -3 -11 -1 -8 4 3 6 15 10 26 10 11 0 32 14 46 30 13 17 32 30 42
30 9 0 33 9 54 19 20 10 37 15 37 10 0 -12 56 -3 124 21 33 11 75 20 94 20 19
0 49 9 66 19 37 23 257 101 304 108 17 3 32 11 32 18 0 7 47 29 110 50 60 21
144 58 187 82 109 61 226 116 303 142 70 23 89 33 352 186 221 129 282 184
344 311 53 109 50 107 215 109 113 1 118 2 167 34 57 36 168 69 184 53 18 -18
-134 -573 -290 -1052 -124 -383 -195 -680 -243 -1027 l-23 -163 32 -77 c18
-43 35 -106 38 -140 4 -35 11 -63 15 -63 5 0 19 -10 30 -21 33 -33 136 -39
181 -11 19 12 56 26 83 32 48 11 159 56 180 73 6 4 26 16 45 26 19 10 44 31
55 47 14 20 27 28 42 26 27 -4 68 36 78 75 3 15 17 39 30 55 27 32 65 127 65
162 0 32 17 44 79 56 28 5 61 14 72 20 15 8 24 8 34 0 10 -8 23 -7 50 4 l37
16 -7 -40 c-6 -35 -4 -40 12 -40 38 0 93 91 93 152 0 11 8 31 19 44 10 13 22
45 25 71 4 27 20 88 37 136 16 48 27 92 23 98 -4 6 -2 14 3 18 13 9 86 120
101 154 7 15 12 45 12 66 0 30 5 40 25 51 32 17 51 60 125 275 31 94 103 277
158 407 104 245 153 377 178 484 8 34 29 84 46 110 18 27 62 110 97 185 l64
136 281 68 c155 37 379 94 498 126 179 49 262 65 475 95 281 38 539 79 591 94
25 6 32 6 28 -3 -29 -70 -68 -215 -81 -299 -19 -130 -27 -155 -115 -374 -168
-416 -268 -765 -395 -1369 -25 -121 -62 -278 -82 -350 -26 -94 -35 -147 -34
-194 1 -42 -5 -83 -19 -123 -25 -73 -16 -121 33 -174 28 -30 47 -38 147 -63
63 -15 129 -35 145 -43 17 -9 55 -21 87 -27 65 -14 106 -2 147 43 17 17 35 26
56 26 17 0 57 5 88 11 51 11 55 14 54 37 -2 21 5 30 36 44 20 10 37 19 37 21
0 1 -7 27 -15 57 -11 42 -12 56 -2 62 8 5 14 -3 18 -27 6 -33 47 -103 75 -126
12 -10 10 -15 -11 -35 -26 -24 -35 -86 -15 -99 14 -9 77 61 106 119 24 46 39
86 101 269 15 44 32 77 39 77 24 0 37 27 160 335 13 32 36 77 50 98 14 21 24
41 22 43 -3 2 -19 7 -36 10 -26 5 -36 1 -62 -24 -16 -17 -30 -41 -30 -54 0
-13 -12 -34 -25 -47 -14 -13 -28 -34 -31 -47 -8 -30 -24 -21 -24 13 0 15 13
38 35 60 29 29 35 41 30 63 -4 17 5 56 26 111 70 189 79 222 89 315 12 119 19
143 70 269 22 55 42 114 45 130 6 50 21 78 64 120 35 33 40 44 35 70 -3 17 1
45 10 65 l15 35 1 -37 c0 -21 5 -38 10 -38 6 0 10 -17 10 -38 0 -28 -7 -45
-26 -62 -18 -18 -23 -31 -19 -47 3 -15 -8 -50 -35 -103 -22 -44 -40 -88 -40
-99 0 -32 -30 -112 -56 -150 -22 -33 -22 -36 -7 -53 35 -39 83 -7 83 56 0 20
7 48 16 61 31 47 124 250 124 270 0 11 11 41 25 67 29 55 35 138 10 138 -22 0
-19 48 6 117 50 137 210 499 337 762 l138 285 146 36 c80 21 156 44 169 53 15
11 44 17 81 17 32 0 78 5 102 12 35 9 53 9 83 -1 34 -11 48 -11 102 4 49 14
67 15 87 6 15 -7 47 -9 82 -5 95 11 95 23 0 24 -49 0 -88 2 -88 4 0 3 18 32
40 65 45 67 47 68 144 50 32 -6 61 -8 64 -4 3 3 -6 18 -21 32 -26 26 -29 27
-72 15 -54 -14 -75 -15 -75 -3 0 16 61 31 124 31 80 0 134 16 169 48 l29 27
-25 -55 c-14 -30 -46 -100 -72 -155 -112 -239 -248 -592 -358 -930 -99 -304
-122 -453 -122 -780 1 -211 3 -253 23 -345 103 -472 366 -872 742 -1125 179
-121 329 -180 595 -236 148 -31 174 -34 335 -33 352 0 701 64 900 164 30 15
83 32 117 38 83 14 216 71 403 170 182 96 268 159 277 203 4 21 13 31 32 36
55 14 123 52 171 97 28 26 74 58 103 70 40 18 61 36 91 80 21 31 54 69 72 86
l33 29 -45 3 -46 3 73 51 c122 84 150 99 159 85 15 -25 68 18 155 124 48 58
109 138 135 178 52 78 76 104 160 171 30 24 83 75 118 114 74 84 272 366 282
404 5 14 40 76 79 136 39 61 71 116 71 123 0 6 20 31 45 56 45 44 45 44 30 74
-15 29 -14 32 50 165 37 74 75 143 85 152 9 9 34 60 55 112 45 113 78 180 115
235 23 34 80 189 80 218 0 6 18 33 40 62 41 54 39 48 115 355 20 80 45 165 56
188 15 33 20 62 18 116 -1 41 3 82 10 95 15 26 51 356 51 456 -1 39 -7 113
-15 165 -7 52 -21 143 -29 203 -19 134 -33 186 -95 367 -75 217 -71 210 -103
210 -36 0 -58 33 -58 87 0 36 -3 43 -19 43 -33 0 -77 52 -94 110 -15 49 -80
148 -99 150 -12 0 -10 -58 2 -65 13 -8 13 -25 0 -25 -5 0 -25 14 -45 31 -34
30 -35 32 -18 51 15 17 16 28 5 121 -14 130 -53 283 -92 361 -16 34 -61 106
-100 161 -39 55 -88 132 -109 170 -65 117 -82 125 -328 161 -181 26 -382 77
-463 117 -33 16 -47 30 -53 52 -23 79 -25 80 -112 76 -44 -2 -88 -9 -100 -16
-11 -7 -56 -15 -100 -18 -115 -9 -175 -30 -247 -87 -35 -27 -81 -59 -103 -71
-22 -12 -97 -75 -166 -139 -69 -65 -145 -128 -167 -139 -23 -12 -81 -54 -129
-94 -147 -122 -615 -587 -755 -749 -72 -84 -247 -283 -388 -443 -320 -363
-344 -391 -472 -561 -272 -362 -455 -652 -702 -1114 -46 -87 -57 -101 -62 -82
-5 18 -13 22 -44 22 -32 0 -37 3 -33 18 3 13 -6 24 -31 37 -25 14 -41 33 -55
67 -22 54 -45 64 -116 55 -24 -4 -47 -2 -50 2 -3 5 -20 13 -38 17 l-32 7 30 9
c17 4 109 11 205 15 155 6 172 8 145 19 l-30 13 33 1 c18 0 42 -4 52 -10 22
-12 50 -3 50 14 0 15 -115 127 -147 145 -13 6 -38 9 -61 5 -54 -9 -163 23
-170 49 -5 19 -11 20 -189 13 -126 -5 -183 -3 -183 4 0 21 105 219 210 395 59
99 137 241 173 315 37 78 116 211 185 315 66 99 149 234 185 300 36 66 84 151
108 189 23 38 52 92 63 120 12 28 40 75 64 104 62 79 109 169 126 242 20 84
20 134 0 151 -24 20 -50 78 -64 144 -18 81 -43 129 -150 291 -15 22 -30 57
-34 78 -6 30 -14 40 -41 52 -19 8 -42 14 -50 14 -9 0 -38 18 -64 40 -40 34
-55 41 -87 39 -32 -2 -55 8 -134 59 -84 54 -100 61 -131 56 -31 -5 -38 -2 -53
21 -17 25 -22 27 -65 21 -72 -9 -165 -60 -210 -114 -22 -26 -66 -78 -98 -117
-33 -38 -67 -90 -77 -115 -10 -25 -28 -58 -40 -75 -34 -44 -78 -135 -146 -302
-34 -81 -97 -213 -140 -293 -89 -163 -117 -224 -149 -321 -12 -37 -31 -75 -41
-84 -11 -10 -20 -26 -20 -37 0 -10 -4 -18 -9 -18 -5 0 -12 -15 -15 -32 -3 -18
-29 -80 -57 -138 -28 -58 -75 -163 -105 -233 -29 -71 -63 -136 -74 -145 -11
-9 -48 -80 -81 -157 -33 -76 -69 -151 -79 -165 -11 -15 -46 -84 -79 -154 -34
-71 -105 -200 -158 -287 l-98 -158 -50 -12 c-27 -6 -133 -15 -235 -19 -126 -5
-244 -17 -370 -38 -102 -16 -212 -33 -245 -37 -33 -3 -96 -17 -140 -30 -44
-13 -181 -40 -305 -59 -181 -28 -247 -42 -338 -75 -161 -58 -157 -60 -115 52
41 112 143 319 257 526 47 85 109 206 137 270 29 64 103 221 165 350 91 187
119 237 143 252 37 23 57 60 74 141 9 41 29 86 56 128 23 36 63 108 88 160 25
52 69 131 98 175 75 114 190 350 205 418 14 68 6 143 -21 202 -34 73 -84 149
-129 196 -46 48 -115 145 -165 234 -37 64 -107 139 -148 158 -18 8 -72 20
-122 27 -49 7 -115 16 -145 20 -51 8 -62 5 -145 -31 -53 -24 -91 -36 -93 -29
-2 6 -19 32 -37 59 -19 27 -31 51 -28 54 3 3 -22 33 -54 66 -50 52 -64 61 -93
61 -19 -1 -47 -7 -62 -16z m7578 -1806 c9 -18 27 -46 39 -63 12 -16 28 -47 34
-67 9 -28 20 -39 45 -48 30 -10 34 -15 40 -59 4 -27 19 -67 35 -92 20 -30 34
-71 45 -129 9 -47 25 -117 35 -157 56 -204 53 -592 -5 -817 -20 -76 -130 -371
-189 -506 -104 -238 -278 -540 -518 -900 -272 -408 -325 -477 -577 -745 -98
-104 -188 -202 -199 -216 -60 -77 -523 -455 -542 -443 -4 2 -46 -21 -93 -51
-102 -66 -234 -138 -296 -160 -64 -23 -340 -83 -435 -95 -160 -20 -247 17
-313 132 -19 34 -20 43 -11 145 37 399 167 869 334 1203 29 58 74 155 100 215
132 305 295 589 521 905 57 80 129 174 160 209 31 36 68 83 82 105 15 23 61
82 102 131 42 50 181 218 310 375 373 455 501 591 750 805 133 114 212 170
325 231 50 26 110 65 135 86 25 21 51 38 57 38 7 0 20 -15 29 -32z m-6065
-4941 c-17 -17 -13 -47 14 -102 13 -27 25 -55 25 -61 0 -19 -72 -44 -93 -32
-43 23 -44 100 -1 151 13 16 24 37 24 48 0 11 5 30 12 42 11 22 11 22 21 -6 6
-20 6 -32 -2 -40z"/>
<path d="M49965 21419 c-632 -33 -1123 -106 -1775 -260 -558 -132 -1373 -354
-1453 -396 -19 -9 -41 -13 -63 -8 -59 11 -111 -11 -184 -78 -37 -34 -88 -74
-114 -89 -58 -34 -87 -93 -93 -188 -5 -84 7 -105 81 -144 49 -26 65 -42 102
-101 79 -125 84 -139 84 -253 0 -167 20 -185 198 -178 99 4 106 6 191 50 61
31 140 60 252 90 90 25 179 50 198 55 19 6 36 10 37 8 1 -1 -10 -39 -26 -85
-28 -81 -46 -117 -79 -157 -9 -11 -29 -58 -44 -105 -15 -47 -47 -119 -72 -160
-50 -85 -65 -114 -181 -364 -46 -98 -142 -287 -213 -420 -71 -133 -174 -327
-228 -432 -92 -179 -102 -194 -161 -243 -34 -29 -78 -59 -96 -66 -45 -19 -93
-76 -107 -127 -16 -62 -6 -154 23 -212 l25 -49 -252 -511 c-437 -886 -569
-1171 -776 -1681 -64 -159 -159 -380 -209 -490 -51 -110 -95 -218 -97 -240 -4
-34 1 -49 36 -102 57 -84 228 -266 260 -276 14 -4 69 -4 121 -1 83 6 97 10
113 31 10 12 24 23 31 23 13 0 46 32 90 85 22 28 146 122 146 111 0 -3 -4 -16
-9 -30 -7 -18 -6 -27 4 -36 18 -15 46 22 76 102 12 35 35 74 49 88 18 17 32
47 44 96 14 55 23 74 40 82 34 15 108 150 195 357 43 100 106 228 140 285 34
57 72 134 84 170 17 52 28 70 49 79 15 7 29 23 33 39 3 15 28 83 55 152 27 69
52 139 56 155 7 28 6 29 -9 13 -9 -9 -17 -24 -17 -34 0 -10 -7 -25 -16 -35 -9
-10 -18 -36 -21 -58 -3 -23 -9 -41 -13 -41 -10 0 -68 -97 -137 -230 -67 -129
-123 -223 -129 -217 -5 4 147 373 261 637 108 249 250 532 293 584 22 27 59
84 83 127 43 81 69 114 69 88 0 -8 -13 -33 -29 -57 -18 -26 -27 -50 -24 -62 3
-11 -7 -48 -21 -81 -46 -101 -22 -90 28 13 26 53 54 102 62 109 24 20 -22 -95
-77 -191 -27 -47 -58 -111 -69 -144 -11 -32 -28 -72 -39 -90 -11 -17 -22 -48
-26 -69 -4 -21 -17 -52 -29 -70 -12 -18 -28 -52 -36 -76 -8 -24 -30 -69 -49
-100 -70 -115 -95 -167 -112 -236 -9 -38 -54 -151 -99 -250 -78 -170 -402
-966 -396 -972 4 -5 245 509 503 1076 129 282 274 594 324 692 101 202 219
461 270 591 29 74 37 88 57 88 23 0 30 -14 12 -25 -6 -4 -8 -16 -5 -26 4 -11
0 -30 -8 -42 -8 -12 -35 -77 -60 -144 -26 -68 -63 -149 -84 -180 -21 -32 -65
-112 -98 -178 -115 -226 -207 -399 -221 -413 -8 -7 -14 -27 -14 -43 0 -16 -16
-61 -35 -99 -42 -83 -122 -282 -160 -400 -46 -140 -92 -258 -156 -395 -34 -71
-69 -148 -79 -170 -10 -22 -29 -65 -43 -95 -124 -269 -96 -230 80 107 138 267
265 537 253 541 -6 2 16 54 49 115 140 265 163 307 167 307 7 0 -17 -56 -73
-165 -45 -89 -93 -203 -93 -222 0 -2 5 -1 11 3 18 11 2 -43 -27 -91 -23 -39
-34 -43 -14 -5 6 11 6 21 1 24 -5 3 -17 -13 -26 -37 -27 -65 -28 -74 -11 -53
9 11 16 15 16 8 0 -6 -8 -17 -19 -24 -10 -7 -43 -69 -73 -138 -64 -144 -114
-280 -98 -264 6 6 19 33 29 60 13 33 25 50 39 52 13 2 23 16 31 45 7 23 31 72
52 109 44 73 79 157 79 189 0 13 6 19 16 17 11 -2 20 6 24 22 4 14 16 54 26
89 10 35 40 101 66 147 27 47 45 90 42 99 -4 8 -1 15 5 15 17 0 58 72 82 142
18 55 48 109 156 281 13 20 28 37 34 37 16 0 49 83 42 108 -4 16 2 31 17 47
13 14 20 25 17 25 -12 0 42 132 80 197 21 35 40 58 44 52 10 -17 21 20 24 84
4 73 46 163 116 251 29 36 56 66 59 66 15 0 79 74 95 110 17 38 20 40 61 38
24 -1 53 5 67 14 13 9 50 19 83 23 32 4 84 15 114 25 30 9 66 17 79 18 13 0
40 12 60 26 32 22 156 66 268 95 23 6 95 18 160 27 126 16 266 57 294 85 10
10 32 19 50 21 l33 3 22 -135 c100 -619 309 -1387 546 -2014 150 -397 292
-710 346 -764 21 -21 42 -53 45 -70 4 -18 24 -51 45 -74 21 -24 46 -64 56 -91
11 -29 31 -57 52 -74 34 -26 36 -26 167 -20 73 3 140 8 150 12 10 4 24 19 31
34 17 33 14 160 -4 171 -8 5 -2 10 19 15 17 3 40 18 50 32 11 13 25 22 30 19
15 -10 24 13 11 29 -6 8 -21 15 -32 17 -36 5 -30 23 13 36 39 12 43 11 61 -8
l20 -21 15 21 c13 18 13 24 3 30 -7 5 -13 23 -13 42 0 22 -11 48 -33 79 -19
26 -63 111 -99 189 -35 79 -71 150 -79 159 -22 25 -63 121 -76 179 -7 29 -23
66 -35 81 -23 26 -68 138 -86 213 -5 20 -5 56 0 81 4 25 4 51 0 60 -5 8 -12
40 -15 72 -6 46 -4 56 6 50 9 -5 10 -2 5 14 -8 28 6 27 33 -2 14 -15 22 -36
22 -59 0 -19 9 -77 20 -129 11 -52 20 -103 19 -114 0 -18 -1 -17 -14 5 -13 22
-14 23 -14 5 -1 -37 46 -171 74 -213 18 -27 30 -62 35 -99 6 -57 7 -58 19 -29
15 38 9 67 -46 200 -30 75 -43 121 -41 145 3 32 8 23 42 -74 53 -154 219 -510
236 -510 8 0 18 -16 23 -37 9 -37 42 -77 54 -64 12 11 -26 135 -73 236 -78
172 -154 429 -154 525 0 28 -9 83 -20 123 -11 39 -20 92 -20 116 0 25 -18 97
-41 167 -23 67 -72 265 -110 438 -38 174 -73 334 -78 356 -25 101 -84 601 -88
745 -4 126 -9 164 -25 203 -12 26 -19 49 -17 51 28 27 702 402 912 507 190 96
354 187 520 291 347 216 594 385 647 442 25 27 62 66 84 85 21 20 49 55 63 79
14 23 34 47 44 53 10 5 19 14 19 20 0 6 19 32 41 57 77 87 133 245 159 452 6
52 21 134 32 182 13 57 18 101 14 125 -9 50 -10 66 -7 213 1 69 2 129 2 134
-1 5 -8 3 -16 -4 -13 -11 -14 -8 -9 17 3 17 -1 45 -10 67 -9 21 -16 47 -16 57
0 29 -62 146 -114 215 -172 229 -485 397 -901 483 -214 45 -315 53 -733 58
-337 5 -402 8 -398 19 4 10 -3 14 -27 13 -18 -1 -99 -6 -182 -10z m712 -1050
c172 -23 386 -89 410 -125 30 -47 29 -106 -5 -179 -66 -140 -132 -207 -422
-432 -245 -189 -546 -358 -1107 -619 -308 -143 -1252 -554 -1274 -554 -5 0 -9
5 -9 11 0 11 181 360 348 674 47 88 117 207 155 264 96 142 109 181 110 311 1
98 -2 113 -41 227 -23 66 -42 130 -42 141 0 26 51 69 98 81 280 75 436 105
657 126 88 9 248 27 355 40 107 14 233 29 280 34 124 12 396 13 487 0z m-956
-4478 c13 -46 38 -109 57 -140 31 -52 61 -154 62 -210 0 -23 -1 -24 -20 -6
-11 10 -20 28 -20 39 0 12 -11 45 -25 74 -14 30 -25 62 -25 72 0 10 -14 47
-30 82 -29 61 -60 179 -59 223 0 36 36 -44 60 -134z"/>
<path d="M56051 21119 c-223 -16 -510 -66 -976 -169 -121 -27 -331 -70 -466
-96 l-247 -48 -78 55 c-44 30 -108 84 -144 120 -45 46 -88 78 -138 103 -136
67 -192 48 -336 -115 -124 -140 -171 -207 -185 -265 -24 -95 -172 -366 -371
-679 -153 -242 -190 -308 -357 -635 -72 -140 -185 -359 -251 -487 -114 -217
-262 -522 -316 -651 -13 -31 -61 -135 -105 -230 -45 -95 -81 -179 -81 -186 0
-7 -9 -24 -19 -38 -11 -14 -38 -74 -61 -134 -22 -60 -58 -134 -79 -165 -80
-114 -283 -721 -451 -1346 -34 -125 -75 -271 -90 -323 -16 -52 -62 -216 -102
-365 l-73 -270 0 -190 c0 -232 9 -266 94 -360 31 -34 65 -82 75 -106 28 -68
31 -73 57 -86 170 -82 320 -161 340 -179 36 -32 89 -52 127 -47 25 3 64 -4
117 -22 134 -45 201 -44 395 5 172 44 257 80 325 135 53 43 227 115 278 115
21 0 62 6 90 14 29 8 69 17 91 21 21 3 49 17 61 29 22 22 425 196 490 212 17
4 41 15 55 24 14 10 55 20 94 23 56 5 75 12 96 32 31 30 117 65 160 65 21 0
30 5 30 16 0 37 63 80 150 104 47 12 101 22 120 22 35 -2 168 31 203 50 14 7
16 13 7 23 -14 17 5 30 102 74 91 41 198 70 288 77 73 6 77 8 125 54 38 36 82
62 185 107 379 168 372 165 365 190 -5 20 0 26 30 39 28 11 35 20 35 43 0 26
8 32 108 78 144 69 392 159 472 173 89 16 139 40 179 86 l35 39 -48 3 c-56 4
-56 15 2 57 22 17 41 32 41 35 1 3 -18 4 -41 2 -43 -4 -43 -4 -25 16 11 11 35
28 55 38 21 9 41 23 45 30 4 8 19 14 32 14 19 0 25 5 25 23 0 13 9 33 21 45
11 13 19 30 17 40 -3 14 -18 17 -102 20 l-98 3 24 32 c14 18 27 40 31 50 3 9
11 17 17 17 5 0 10 11 10 24 0 21 8 26 58 41 102 30 120 41 127 77 10 53 -9
86 -62 111 -45 21 -63 22 -268 22 -216 0 -223 -1 -409 -39 -105 -21 -258 -58
-340 -83 -83 -24 -252 -73 -376 -109 -124 -36 -279 -85 -345 -108 -66 -24
-217 -74 -335 -111 -260 -81 -888 -306 -1020 -365 -52 -23 -167 -68 -255 -100
-88 -32 -190 -69 -228 -83 -37 -14 -86 -28 -110 -32 -23 -3 -89 -15 -146 -27
-185 -36 -223 -4 -200 166 18 137 47 283 63 314 8 15 70 162 139 327 135 323
287 671 315 717 23 39 98 60 222 62 92 1 97 2 136 33 45 36 120 59 314 97 69
13 143 29 165 35 22 6 58 11 80 11 22 0 62 9 90 19 87 33 147 49 258 71 146
29 206 51 270 99 77 58 205 97 382 117 84 9 247 48 329 79 43 16 86 25 115 24
46 -1 172 13 291 32 85 14 110 30 110 72 1 38 33 79 77 96 17 7 33 21 36 32 3
10 14 19 24 19 11 0 48 14 82 31 64 32 101 74 101 115 0 23 -29 54 -51 54 -12
0 -11 2 1 10 10 7 -25 10 -109 10 l-123 0 6 38 c12 66 26 92 52 92 13 0 24 4
24 8 0 14 79 61 82 50 5 -13 101 44 144 84 34 32 48 83 38 136 -7 37 -13 38
-167 54 -142 14 -340 1 -577 -37 -85 -14 -222 -32 -305 -40 -456 -48 -936
-130 -1315 -225 -89 -22 -165 -39 -167 -37 -6 7 92 151 231 341 146 199 271
393 323 501 35 72 54 106 64 115 4 3 10 16 14 30 25 83 93 119 356 189 42 11
116 38 165 59 202 89 431 170 519 185 259 44 338 60 418 84 79 24 94 25 133
15 41 -11 49 -10 87 12 42 24 72 28 360 51 69 6 135 33 191 79 23 18 67 45 98
60 31 15 68 40 82 57 24 29 46 86 46 121 0 10 9 22 19 28 11 5 21 22 23 37 2
19 10 29 27 33 18 4 28 17 39 48 15 47 39 62 97 62 l35 0 -30 47 c-61 96 -32
196 78 267 49 31 65 49 81 87 12 26 18 54 15 63 -10 26 -74 48 -168 57 -50 4
-140 15 -201 23 -121 17 -577 20 -784 5z"/>
<path d="M27282 18265 c-7 -88 -17 -223 -23 -300 -5 -77 -16 -183 -24 -235
-10 -70 -12 -141 -8 -270 6 -165 7 -172 20 -135 10 29 41 327 43 417 0 3 12
21 27 38 22 27 25 35 15 51 -19 29 -16 312 3 377 15 49 15 54 -5 93 -12 22
-25 60 -29 82 -5 33 -9 7 -19 -118z"/>
<path d="M31415 15601 c-38 -10 -156 -46 -261 -81 -178 -59 -259 -98 -241
-117 4 -4 58 9 120 29 170 55 172 54 37 -13 -69 -34 -130 -62 -136 -61 -6 1
-19 -7 -29 -18 -18 -19 -17 -20 3 -20 11 0 22 6 25 13 3 9 8 9 17 1 9 -9 24
-3 63 23 33 22 58 32 72 29 14 -4 27 2 38 14 9 11 22 20 29 20 9 0 8 -3 -2
-10 -23 -15 58 -12 102 4 40 14 92 45 86 51 -2 2 -28 -5 -58 -15 -102 -33
-117 -32 -46 5 85 44 108 60 99 68 -3 4 -1 7 6 7 17 0 181 77 181 84 0 10 -30
6 -105 -13z"/>
<path d="M30300 15064 c-25 -8 -56 -12 -69 -9 -13 3 -33 -1 -45 -9 -13 -8 -45
-21 -72 -29 -27 -8 -101 -35 -164 -60 -63 -25 -131 -48 -150 -52 -19 -4 -66
-24 -105 -45 -101 -55 -183 -87 -263 -104 -44 -9 -109 -34 -169 -66 -72 -38
-105 -50 -125 -46 -21 4 -31 -1 -53 -29 -29 -39 -72 -65 -107 -65 -13 0 -36
-13 -51 -30 -23 -24 -37 -30 -70 -30 -23 -1 -60 -7 -82 -15 -22 -8 -47 -15
-55 -15 -8 0 -26 -9 -40 -20 -20 -16 -22 -20 -7 -20 9 0 17 -4 17 -10 0 -5
-11 -10 -25 -10 -17 0 -39 -14 -65 -42 -21 -23 -38 -44 -36 -45 2 -2 59 24
127 58 110 54 118 62 44 43 -17 -4 -16 -2 5 15 28 23 83 37 101 25 9 -5 7 -10
-7 -15 -17 -7 -18 -8 -1 -8 10 -1 25 6 33 14 9 8 27 15 42 15 25 1 108 38 87
40 -12 1 36 39 49 40 6 0 1 -7 -10 -16 -22 -18 -17 -17 81 20 84 32 87 34 204
113 54 36 108 65 129 68 40 7 342 119 430 160 60 29 98 31 129 10 20 -14 26
-14 56 -1 42 17 73 56 54 68 -8 5 -7 8 5 8 11 0 15 5 12 15 -6 15 37 32 55 21
6 -4 27 1 48 10 21 10 63 28 93 40 61 25 40 31 -30 8z"/>
<path d="M30133 14806 c-17 -6 -34 -18 -36 -27 -3 -11 -22 -22 -48 -30 -24 -6
-75 -22 -114 -35 -63 -21 -66 -24 -33 -24 20 0 39 4 42 9 3 5 32 12 63 15 32
4 71 9 87 12 22 5 27 3 20 -7 -24 -39 -6 -51 26 -19 11 11 29 20 39 20 11 0
23 5 26 11 4 6 22 8 46 4 31 -5 39 -4 39 8 0 8 -8 18 -17 22 -16 6 -15 8 7 20
30 17 22 19 -17 4 -15 -6 -59 -17 -98 -24 l-70 -14 30 22 c17 13 44 22 64 22
19 0 36 5 38 11 4 12 -50 13 -94 0z"/>
<path d="M29705 14690 c-82 -31 -357 -161 -351 -167 1 -2 65 23 142 56 76 32
141 56 144 54 12 -11 -69 -62 -146 -93 -46 -18 -93 -42 -104 -52 -20 -19 -27
-48 -12 -48 13 0 192 108 225 137 18 14 64 41 102 59 66 31 68 33 30 28 l-40
-4 60 29 c77 38 53 38 -50 1z"/>
<path d="M29803 14641 c-29 -28 -184 -131 -199 -131 -6 0 -16 -11 -22 -25 -6
-14 -8 -25 -4 -25 5 0 42 17 83 38 41 20 116 55 166 77 51 22 93 43 93 48 0 4
-16 7 -35 7 -19 0 -35 4 -35 9 0 18 -30 20 -47 2z"/>
</g>
</svg>
